<svg xmlns="http://www.w3.org/2000/svg" xmlns:xlink="http://www.w3.org/1999/xlink" width="1456" height="834.9" viewBox="0 0 1456 834.9"><g style="isolation:isolate"><g id="a555ac55-891d-4a12-9b7a-adae9f1a192c" data-name="Layer 1"><rect width="1456" height="834.89" style="fill:#4cc2f1"/><rect y="459.4" width="1456" height="375.5" style="fill:#007eac"/><path d="M1237.8,586.5c-33.6-5.5-67.8-2.5-101.7-2.1-45,.6-90.6-2.6-135.6-4.4-92.9-3.6-185.8-6.7-278.9-8s-185.8-1.4-278.7-2.8c-72.5-1-145-4.4-217.6-5.5-37.8-.6-76-2-113.4-6.9-19.8-2.5-67.6-6.4-72.5-27.4-2.3-9.9,8.9-18.8,17.5-24.2,24.9-15.8,55.5-26.5,85.3-34.6,14.9-4.1,30-7.6,45.2-10.6H-.3V581.9c29.4-.4,58.7-2.3,88-4.1,40.3-2.3,80.9-3.5,121.3-4.6,51.4-1.5,103.3-1.4,153.8,7.7,3.7.7,3.3,4.9,0,5.8-117.9,30-240.6,37.4-363.1,45.7v50.9c99.6-13,200.5-20.2,301.2-25.2,88.1-4.5,176.5-8.6,264.8-11,93.8-2.6,187.7-3.7,281.6-6.9,79.1-2.6,157.7-8.5,236.6-13.3,33.1-2,66.4-4.1,98.9-9.4,27.4-4.4,56.1-10.5,78.9-24.1A95.4,95.4,0,0,0,1237.8,586.5Z" transform="translate(0.3 -0.6)" style="fill:#007eac;opacity:.30000000000000004;mix-blend-mode:multiply"/><path d="M1419.7,492.7c-40.2.9-80.3,4.1-120.5,3.3-34.3-.8-70.5-3.4-100.8-17.5-2.6-1.2-2.1-3.9,0-5.2a151.9,151.9,0,0,1,28.9-13.3H484.2c-17.9,5.9-34.6,13.8-48.7,24.7,20.7,10.9,47.5,13.5,71.5,14.5,27.6,1.2,55.1.2,82.7-.6,39.6-1.1,79.4,1.3,119.1,1.8,46.4.6,92.7.7,139.1.6,92.7-.3,185.5-.7,278.2,0,109.9,1,219.7,2.7,329.6,3.2V492.1Z" transform="translate(0.3 -0.6)" style="fill:#007eac;opacity:.30000000000000004;mix-blend-mode:multiply"/><path d="M1310,622.3c-11.5,8.9-.1,18.7,10.6,24,22.2,11,48.8,16.2,73.9,20.7,20.3,3.7,40.8,6.7,61.2,9.7V594.2c-34.2,2.5-68.5,6.1-101.5,13C1339.7,610.3,1321.2,613.6,1310,622.3Z" transform="translate(0.3 -0.6)" style="fill:#007eac;opacity:.30000000000000004;mix-blend-mode:multiply"/><path d="M350.5,808.5c130.5-14.3,262-20.5,393.6-22.4,186.2-2.8,373.4-3.4,559.5,2.8,50.4,1.6,101.4,3.3,152.1,6.5v-67c-234.3-7.2-468.9-12.8-703.3-4.6-178.9,6.3-358.1,19.3-535.9,35.9Q107.9,769.9-.3,783.2v52.2H169.4C229.4,825.2,289.6,815.2,350.5,808.5Z" transform="translate(0.3 -0.6)" style="fill:#007eac;opacity:.30000000000000004;mix-blend-mode:multiply"/><path d="M1251.1,459.9c3.6-14.8,7.9-29.4,12.1-44.1-17.7-29.7-32.8-59.9-49.7-89.8l-3.9-.5c-14.7-2.1-29.2-5.7-43.8-8.8-30.8,15.4-78.1,42.2-79,41.4-3.3-2.8-6.3-5.8-9.3-8.8-19.7,4.2-40.6,6.3-60.8,9.7-1.2.2-10.9-24.4-19.9-34.2l-27-2.8c-25.3-2.6-51-5.1-76.1-8.9-18.7,5.6-47.7,27.4-54.5,29.1-1.4.4-1.4-38.2-5.5-44.7-46.2-19.6-92.1-39.6-138.3-59.2-4.9.9-46.5,13.7-71.1,25.3-6.3,3-96.9-6.2-110.6-7.4-4.7-.4-17.5,5.8-32.3,12.6s-31.5,14.1-36.5,16.8c-7.6,3.9-50-.5-61.5,0s-114.1,63-143.8,79.2l-1,.5c-20.3,10.9-40.1,22-59.6,33.4,4.3,20.5,9,40.9,14.4,61.2Z" transform="translate(0.3 -0.6)" style="fill:#f3f9f6"/><path d="M468.1,459.9c-2.1-13.1-4.3-26.2-6.7-39.3-8-44.6-11.9-89.5-18.9-134.3-11,2.4-44.7-.8-57.2-.8,15.8,58.1,30.2,116.3,46.1,174.4Z" transform="translate(0.3 -0.6)" style="fill:#e7f4f5;mix-blend-mode:multiply"/><path d="M728,459.9h5.9c4.8-8.5,9.7-17,14.6-25.5,27-46.1,57-91.4,84.1-137.4-45.2-19.1-89.9-38.6-134.9-57.8,13.8,53.9,16,108.7,23,163C723.1,421.4,725.6,440.7,728,459.9Z" transform="translate(0.3 -0.6)" style="fill:#e7f4f5;mix-blend-mode:multiply"/><path d="M910.8,459.9c-4.5-49-10.9-97.9-16.7-146.8h-.4c-18.5,5.5-47,26.9-54.2,29-17.4,39.2-33.4,78.6-50.6,117.8Z" transform="translate(0.3 -0.6)" style="fill:#e7f4f5;mix-blend-mode:multiply"/><path d="M1100.9,459.9H1209c-2.8-9.3-5.6-18.7-8.6-28-12-37.6-20.9-77.9-34.9-115.2-30.6,15.7-77.9,42.1-78.7,41.4-3.3-2.8-6.3-5.8-9.3-8.8h-.8c7,27.3,10.5,54.9,17,82.2C1095.9,441,1098.4,450.5,1100.9,459.9Z" transform="translate(0.3 -0.6)" style="fill:#e7f4f5;mix-blend-mode:multiply"/><path d="M978.7,459.9l8.7-24.6c8.8-25.7,21.1-50.8,30.2-76.4h-.9c-1.1.2-9.3-20.5-17.7-31.5-2.9,35.7-13.6,71.1-17.8,106.6-1.1,8.6-2.1,17.2-3.1,25.8Z" transform="translate(0.3 -0.6)" style="fill:#e7f4f5;mix-blend-mode:multiply"/><path d="M240.2,459.9l-.3-16.2c-.6-21.1-1.2-42.1-1.3-63.1,0-5.1,0-10.2-.1-15.3q-30.3,16.3-59.5,33.4c4.3,20.5,9,40.9,14.4,61.2Z" transform="translate(0.3 -0.6)" style="fill:#e7f4f5;mix-blend-mode:multiply"/><path d="M623.5,373.2c.6,22.2,2.5,44.4,1.2,66.6-.4,6.7-1.1,13.4-1.8,20.1h39.4c-7.5-32.1-15.4-64.1-22.7-96.2-6.3-27.6-10.4-55.3-16.6-82.9-.9,9,.1,18,.3,26.9C623.8,329.6,622.9,351.4,623.5,373.2Z" transform="translate(0.3 -0.6)" style="fill:#e7f4f5;mix-blend-mode:multiply"/><path d="M584.2,459.9c-1.9-5-3.8-10-5.6-15-8.1-22.6-14.4-45.4-23.2-67.8-15.8-40-23.5-81.2-41.3-120.8h-.4c-4.7-.4-53.7,131.4-58.7,134-.7.4-34.7-12.8-44.8-16.9l-1.9.2h-.1l-42.6,12.8c-18,5.3-35.9,10.2-53.3,16.2-11.4,3.9-22.8,7.9-34.5,11.4-13.7,4.8-26.6,9-37.8,11.9-4.2,1.1-49.8-22.7-61-27.1,4.3,20.5,9,40.9,14.4,61.2Z" transform="translate(0.3 -0.6)" style="fill:#e7f4f5;mix-blend-mode:multiply"/><path d="M1123.1,459.9c-3.3-7.6-6.4-15.2-9.2-22.9-10-27.5-18.4-55.4-31.1-82.5l-5.3-5.2c-19.7,4.2-40.6,6.3-60.8,9.7-1,.2-8.3-17.8-16-29.2-15,22.7-29.7,45.4-45.2,67.9q-20.4,29.7-39,59.7l-1.4,2.5Z" transform="translate(0.3 -0.6)" style="fill:#e7f4f5;mix-blend-mode:multiply"/><path d="M1251.1,459.9c3.6-14.8,7.9-29.4,12.1-44.1-17.7-29.7-32.8-59.9-49.7-89.8l-3.9-.5c-14.6-2.5-30.1-5.8-44.1-8.8-8.8,29.1-26.1,116-32.7,143.2Z" transform="translate(0.3 -0.6)" style="fill:#e7f4f5;mix-blend-mode:multiply"/><polygon points="488.6 459.4 443 287.5 466.9 459.4 488.6 459.4" style="fill:#d3dfe0;mix-blend-mode:multiply"/><polygon points="241 459.4 238.8 364.8 194.7 459.4 241 459.4" style="fill:#d3dfe0;mix-blend-mode:multiply"/><polygon points="727.4 459.4 622.9 264.8 661.5 459.4 727.4 459.4" style="fill:#d3dfe0;mix-blend-mode:multiply"/><polygon points="816.7 459.4 839.7 341.6 788.8 459.4 816.7 459.4" style="fill:#e7f4f5;mix-blend-mode:multiply"/><polygon points="1210.1 459.4 1213.8 325.5 1165.8 316.2 1209.5 459.4 1210.1 459.4" style="fill:#f3f9f6"/><polygon points="1101.4 459.4 1077.8 348.7 1017 358.5 1099.9 459.4 1101.4 459.4" style="fill:#f3f9f6"/><g style="mix-blend-mode:multiply"><path d="M1251.1,459.9c1.3-5.3,2.6-10.5,4-15.8l-49.4,8.8-69.6-4.9-16.1,4.5h-21.4l-5.4.4L980,447.5l-60.5,6.4-10.7-1.4H817l-23.8-2L720.5,449l-61.2,2-34.4-2-46.7-.5-93.4-1-19.1,6.4-39-9.3L240,456.4,201.7,446l-10.9,3.8c.8,3.4,1.7,6.8,2.6,10.1Z" transform="translate(0.3 -0.6)" style="fill:#e7f4f5;mix-blend-mode:multiply"/></g><g style="opacity:.5"><path d="M1251.1,458.5c3.6,7.7,7.9,15.3,12.1,23-17.7,15.4-32.8,31.2-49.7,46.7l-3.9.3c-14.7,1.1-29.2,3-43.8,4.6-30.8-8.1-78.1-22-79-21.6-3.3,1.5-6.3,3-9.3,4.6-19.7-2.2-40.6-3.3-60.8-5.1-1.2-.1-10.9,12.7-19.9,17.9l-27,1.4c-25.3,1.4-51,2.7-76.1,4.7-18.7-2.9-47.7-14.3-54.5-15.2-1.4-.2-1.4,19.9-5.5,23.3L695.4,573.9c-4.9-.5-46.5-7.1-71.1-13.1-6.3-1.6-96.9,3.2-110.6,3.8-4.7.2-17.5-3-32.3-6.5s-31.5-7.4-36.5-8.8c-7.6-2.1-50,.2-61.5,0S269.3,516.5,239.6,508l-1-.2c-20.3-5.7-40.1-11.5-59.6-17.5,4.3-10.6,9-21.2,14.4-31.8Z" transform="translate(0.3 -0.6)" style="fill:#f3f9f6"/><path d="M468.1,458.5c-2.1,6.8-4.3,13.6-6.7,20.5-8,23.2-11.9,46.6-18.9,69.9-11-1.3-44.7.4-57.2.4,15.8-30.2,30.2-60.6,46.1-90.8Z" transform="translate(0.3 -0.6)" style="fill:#e7f4f5;mix-blend-mode:multiply"/><path d="M728,458.5h5.9l14.6,13.3c27,24,57,47.6,84.1,71.6-45.2,9.9-89.9,20-134.9,30,13.8-28,16-56.6,23-84.9C723.1,478.5,725.6,468.5,728,458.5Z" transform="translate(0.3 -0.6)" style="fill:#e7f4f5;mix-blend-mode:multiply"/><path d="M910.8,458.5c-4.5,25.5-10.9,51-16.7,76.5h-.4c-18.5-2.9-47-14-54.2-15.2-17.4-20.4-33.4-40.9-50.6-61.3Z" transform="translate(0.3 -0.6)" style="fill:#e7f4f5;mix-blend-mode:multiply"/><path d="M1100.9,458.5H1209c-2.8,4.8-5.6,9.7-8.6,14.6-12,19.6-20.9,40.5-34.9,60-30.6-8.2-77.9-22-78.7-21.6-3.3,1.5-6.3,3-9.3,4.6h-.8c7-14.2,10.5-28.5,17-42.8C1095.9,468.3,1098.4,463.4,1100.9,458.5Z" transform="translate(0.3 -0.6)" style="fill:#e7f4f5;mix-blend-mode:multiply"/><path d="M978.7,458.5l8.7,12.8c8.8,13.4,21.1,26.5,30.2,39.8h-.9c-1.1-.1-9.3,10.7-17.7,16.5-2.9-18.6-13.6-37.1-17.8-55.6-1.1-4.5-2.1-8.9-3.1-13.4Z" transform="translate(0.3 -0.6)" style="fill:#e7f4f5;mix-blend-mode:multiply"/><path d="M240.2,458.5l-.3,8.4c-.6,11-1.2,22-1.3,32.9,0,2.7,0,5.3-.1,8q-30.3-8.6-59.5-17.5c4.3-10.6,9-21.2,14.4-31.8Z" transform="translate(0.3 -0.6)" style="fill:#e7f4f5;mix-blend-mode:multiply"/><path d="M623.5,503.7c.6-11.6,2.5-23.2,1.2-34.8-.4-3.4-1.1-6.9-1.8-10.4h39.4c-7.5,16.7-15.4,33.4-22.7,50.1-6.3,14.4-10.4,28.8-16.6,43.2-.9-4.7.1-9.4.3-14C623.8,526.4,622.9,515,623.5,503.7Z" transform="translate(0.3 -0.6)" style="fill:#e7f4f5;mix-blend-mode:multiply"/><path d="M584.2,458.5l-5.6,7.8c-8.1,11.7-14.4,23.6-23.2,35.3-15.8,20.8-23.5,42.3-41.3,63h-.4c-4.7.2-53.7-68.5-58.7-69.8-.7-.2-34.7,6.7-44.8,8.8h-2l-42.6-6.7c-18-2.7-35.9-5.3-53.3-8.4-11.4-2.1-22.8-4.1-34.5-5.9-13.7-2.5-26.6-4.7-37.8-6.2-4.2-.6-49.8,11.8-61,14,4.3-10.6,9-21.2,14.4-31.8Z" transform="translate(0.3 -0.6)" style="fill:#e7f4f5;mix-blend-mode:multiply"/><path d="M1123.1,458.5c-3.3,3.9-6.4,7.9-9.2,11.9-10,14.4-18.4,28.9-31.1,43l-5.3,2.7c-19.7-2.2-40.6-3.3-60.8-5.1-1-.1-8.3,9.3-16,15.3-15-11.9-29.7-23.7-45.2-35.4q-20.4-15.4-39-31.1l-1.4-1.3Z" transform="translate(0.3 -0.6)" style="fill:#e7f4f5;mix-blend-mode:multiply"/><path d="M1251.1,458.5c3.6,7.7,7.9,15.3,12.1,23-17.7,15.4-32.8,31.2-49.7,46.7l-3.9.3c-14.6,1.3-30.1,3-44.1,4.6-8.8-15.2-26.1-60.5-32.7-74.6Z" transform="translate(0.3 -0.6)" style="fill:#e7f4f5;mix-blend-mode:multiply"/><polygon points="488.6 457.9 443 547.5 466.9 457.9 488.6 457.9" style="fill:#d3dfe0;mix-blend-mode:multiply"/><polygon points="241 457.9 238.8 507.2 194.7 457.9 241 457.9" style="fill:#d3dfe0;mix-blend-mode:multiply"/><polygon points="727.4 457.9 622.9 559.3 661.5 457.9 727.4 457.9" style="fill:#d3dfe0;mix-blend-mode:multiply"/><polygon points="816.7 457.9 839.7 519.3 788.8 457.9 816.7 457.9" style="fill:#e7f4f5;mix-blend-mode:multiply"/><polygon points="1210.1 457.9 1213.8 527.7 1165.8 532.5 1209.5 457.9 1210.1 457.9" style="fill:#f3f9f6"/><polygon points="1101.4 457.9 1077.8 515.6 1017 510.5 1099.9 457.9 1101.4 457.9" style="fill:#f3f9f6"/><g style="mix-blend-mode:multiply"><path d="M1251.1,458.5c1.3,2.7,2.6,5.5,4,8.2l-49.4-4.6-69.6,2.6-16.1-2.3h-21.4l-5.4-.3L980,464.9l-60.5-3.3-10.7.8H817l-23.8,1-72.7.8-61.2-1.1-34.4,1.1-46.7.2-93.4.5-19.1-3.3-39,4.9L240,460.3l-38.3,5.4-10.9-2c.8-1.7,1.7-3.5,2.6-5.2Z" transform="translate(0.3 -0.6)" style="fill:#e7f4f5;mix-blend-mode:multiply"/></g></g><polygon points="1168.7 669.6 1212.8 610 1212.7 574.6 1168.7 573.6 1168.7 669.6" style="fill:#e7f4f5;mix-blend-mode:multiply"/><polygon points="269 578.2 232.6 594.4 292.3 668.5 434.2 681.5 450.5 711.4 704 762.7 961 728.2 1025 688.1 1179.7 689 1224.6 614.5 1112.6 549.5 269 578.2" style="fill:#007eac;opacity:.6000000000000001;mix-blend-mode:multiply"/><polygon points="269 578.2 248.1 588.2 302.8 651.6 440 675.9 449.3 697.4 702.9 751.5 957.6 710.5 1019.2 675 1169.2 677.8 1224.6 614.5 1112.6 549.5 269 578.2" style="fill:#007eac;opacity:.6000000000000001;mix-blend-mode:multiply"/><polygon points="254.5 553.2 254.5 588.5 305.7 647.3 445.2 671.6 449.9 692.1 705.7 743.5 951.1 705.2 1018.6 667.9 1168.6 669.7 1212.8 610 1212.7 574.6 254.5 553.2" style="fill:#e7f4f5"/><polygon points="1212.7 574.6 1167.4 573.6 1168.6 669.7 1212.8 610 1212.7 574.6" style="fill:#e7f4f5;mix-blend-mode:multiply"/><polygon points="306.7 554.4 254.5 553.2 254.5 588.5 305.7 647.3 306.7 647.5 306.7 554.4" style="fill:#e7f4f5;mix-blend-mode:multiply"/><path d="M299.9,577.7c-11.3,8.4-22.1,17.3-32.7,26.4l38.2,43.8,1,.2V573Z" transform="translate(0.3 -0.6)" style="fill:#e7f4f5;mix-blend-mode:multiply"/><polygon points="705 563.3 451.1 557.6 451.1 692.4 705 743.3 705 563.3" style="fill:#e7f4f5;mix-blend-mode:multiply"/><polygon points="614.5 561.2 614.5 725.2 705 743.3 705 563.3 614.5 561.2" style="fill:#e7f4f5;mix-blend-mode:multiply"/><polygon points="1016.2 565.2 958.2 568.9 958.2 701.3 1018.6 668.3 1016.2 565.2" style="fill:#e7f4f5;mix-blend-mode:multiply"/><polygon points="389.4 515.7 254.5 553 305.7 611.9 445.2 636.1 449.9 656.7 705.7 708 951.1 669.7 1018.6 632.4 1168.6 634.3 1212.8 574.5 1103.4 511 901.1 489.6 684.8 485.8 389.4 515.7" style="fill:#f3f9f6"/><g style="mask:url(#ffc46e0a-9001-4557-a78a-70dfa8dcfadd)"><path d="M1107.8,519.1,905.5,497.6l-216.4-3.7L393.7,523.7,262.9,559.9c35.7,7.8,216.1,41.2,318.1,37.3C836.4,587.2,1107.8,519.1,1107.8,519.1Z" transform="translate(0.3 -0.6)" style="fill:url(#e5e53a9e-7a2d-4a6b-8337-db2c27972b31)"/></g><polygon points="449.9 656.7 705.7 708 449.9 663.7 449.9 656.7" style="fill:#fff"/><polygon points="1018.6 632.4 1168.6 634.3 1018.6 641.7 1018.6 632.4" style="fill:#fff"/><polygon points="305.7 611.9 445.2 636.1 307.6 617.1 305.7 611.9" style="fill:#fff"/><path d="M763,84.2c-36.2-4.1-74.7-3.9-111.6-3.9-31.9,0-63.7.5-95.6.9-65.4.9-130.9.1-196.2.4q-57.7.2-115.6.9C208.4,82.9,45.8,83.2.7,81V94.5c21.2-.2,42.3-.6,63.4-1,41-.8,82.1-1.7,123.1-1.6,31,0,64-.3,94.3,3.7,8.1,1.1,33.2,5.8,21.8,12.3s-35.9,7.7-51,9.3c-72.9,7.6-147.9,10.5-222,13.5L.7,132v19.2c14.2,1.2,28.5,2.1,42.7,2.4,18.6.4,37.2.3,55.7,1.5,14.1.9,32.8,1.8,42.8,7.8,6.6,4,1.9,8.9-5.7,11.3-24.8,7.7-58.8,7.6-86.8,9.6-16.3,1.1-32.5,2.9-48.7,4.5v22.2c47.3-3.1,94.7-5.2,142.2-7.2,36.9-1.6,73.4-4.2,110-6.8,20.4-1.5,40.9-3,60.9-5.7,13.8-1.7,30.9-3.7,41.7-8.9,12.4-5.9-.5-12.3-11.1-16-26.9-9.6-62.4-9.2-91.6-16.3-6.1-1.5-16.7-4.8-11.4-9.1,9.1-7.2,34-9.8,48.4-12.1,64.4-10.5,132-13.8,199-15.9,50.9-1.7,101.7-3.4,152.6-5.4,36.3-1.4,73.4-2.9,108.9-7.5,8.4-1.1,31.4-3.1,34.2-8.5S768.5,84.8,763,84.2Z" transform="translate(0.3 -0.6)" style="fill:#aadcf8"/><path d="M136.2,174.2c-24.8,7.7-58.8,7.6-86.8,9.6-16.3,1.1-32.5,2.9-48.7,4.5v9.8c12.5-1.3,24.9-2.6,37.4-3.6,24-1.8,48-3,72-5.1,11.7-1,23.4-1.8,35.1-3.8s27.6-3.5,34.8-12.2c16.2-19.5-60.4-25.8-68.6-26.2-36.9-1.9-73.7-4-110.7-4.9v8.9c14.2,1.2,28.5,2.1,42.7,2.4,18.6.4,37.2.3,55.7,1.5,14.1.9,32.8,1.8,42.8,7.8C148.5,166.9,143.8,171.8,136.2,174.2Z" transform="translate(0.3 -0.6)" style="fill:#dbeffc"/><path d="M217.5,88.4C145.1,88,73,86.7.7,87.5v7c21.2-.2,42.3-.6,63.4-1,41-.8,82.1-1.7,123.1-1.6,31,0,64-.3,94.3,3.7,8.1,1.1,33.2,5.8,21.8,12.3s-35.9,7.7-51,9.3c-72.9,7.6-147.9,10.5-222,13.5L.7,132v1.7c29.9-.6,59.8-.2,89.7-1.5,38.7-1.8,77.4-4.2,116.1-5.6,32.5-1.1,55.2-1.4,87.5-5.3,13.9-1.6,32.6-2.7,45-9.7C346.1,107.5,344.3,89.2,217.5,88.4Z" transform="translate(0.3 -0.6)" style="fill:#dbeffc"/><path d="M1352.4,270.4c-32.9-2.5-89.6-6-104.8-21.9-2-2.1-2.9-4.2-2.7-6.1,1-11.6,44.1-11.7,44.6-17.8.9-9.8-109.4-30.7-181.6-31.7-20.9-.3-41.7-1.7-62.5-3.4-14.4-1.2-30.8-2.4-43.5-5.9-6.9-1.9-13.2-5-9.5-8.8,6.7-6.8,35.7-7.6,49.4-8.5,68.6-4.2-72.1-12.5-166-2.8-35.9,3.7-75.3,8-107.5,16.2-9.8,2.5-30.3,8.4-17.5,14.2,9.7,4.4,24.2,6.5,37.4,7.9,83.4,8.8,171.3,7.6,256.3,7.5,39.6,0,79.3-2.3,118.9-.5,10.8.5,29.3.8,35.5,5.7s-12.3,10.7-19.8,12.9c-20.6,5.9-44.1,10.3-62.8,17.5-14,5.3-24.6,14.6-10.2,21.9s33.3,9.5,51.6,11.6c22.1,2.4,44.8,3.9,67.4,4.9,58.9,2.6,117.7,6.2,176.7,8.5,17.9.7,35.9,1.3,53.9,1.7V276.2C1421.3,273.9,1386.7,272.9,1352.4,270.4Z" transform="translate(0.3 -0.6)" style="fill:#aadcf8"/><path d="M1289.5,224.6c-.1-4.9-45.3-11.3-79.9,2.5-7.3,2.9-12.1,6-12.8,10.1-1.4,7.7,11.1,15.8,22.5,18.9,37.8,10.3,80.7,11.2,119.8,13.9s77.6,6.9,116.6,7.2v-1c-34.4-2.3-69-3.3-103.3-5.8s-89.6-6-107.5-28C1236.9,232.6,1289.6,229.5,1289.5,224.6Z" transform="translate(0.3 -0.6)" style="fill:#dbeffc"/><path d="M964,175.8c-6.9,2-15.2,4.9-15.1,8s19.8,7.1,33.8,8.6c57,6.4,105.6,5.8,142.8,6.5,45.7.7,72.8,3.2,72.9,2.4s-42.2-6.3-90.5-8.4c-21.1-.9-36.2-.6-62.5-3.4-10.2-1.2-53.7-5.9-53.7-12.2,0-4.2,19.2-7.1,19-8S987.6,171.9,964,175.8Z" transform="translate(0.3 -0.6)" style="fill:#dbeffc"/><polygon points="282.1 518.1 192.7 532.6 163.5 560.7 0 560.7 0 554.7 164.1 550.7 187 529.4 272.9 515.8 265.6 496.4 282.1 518.1" style="fill:#007eac;opacity:.6000000000000001;mix-blend-mode:multiply"/><polygon points="262 514.7 183 527.2 183 527.2 182.7 527.4 164.2 542.7 159.1 546.9 159 547 0 551.2 0 485.7 159 485.7 161.9 486 177.8 487.8 178.4 487.9 182.7 488.3 260.7 496.9 261.8 497 262 514.7" style="fill:#d5e1e2"/><path d="M182.4,488.9v39.2l-18.6,15.3-5,4.2h0c0-1-.2-9.8.1-18,.1-3.4.3-6.8.6-9.3a179.9,179.9,0,0,0,1.3-24.3,12.1,12.1,0,0,1,0-1.9v-.3c.1-2.3.5-4.7.8-7.1h0l16,1.7h.5Z" transform="translate(0.3 -0.6)" style="fill:#e7f4f5;mix-blend-mode:multiply"/><path d="M272.6,516.3l-85.9,13.6-22.9,21.3L-.3,555.3v-3.5l159-4.2h.1l5-4.2v.4l18.9-15.7v-.4h0l79-12.5-.2-17.6h-1.1l1.5-.3-1-1.1,4.3.6v.2Z" transform="translate(0.3 -0.6)" style="fill:#d5e1e2;mix-blend-mode:multiply"/><path d="M182.7,509.9v18.2l-18.9,15.7v-.4a.1.1,0,0,0,.1-.1c1.4-4.8,2.4-9.6,4-13.9l3.9-10.5,10.6-8.8Z" transform="translate(0.3 -0.6)" style="fill:#e7f4f5;mix-blend-mode:multiply"/><polygon points="0 533.7 0 549.9 159.1 529.4 0 533.7" style="fill:#e7f4f5;mix-blend-mode:multiply"/><polygon points="262.2 496.7 260.7 496.9 183.2 509.2 183 509.3 182.7 509.6 172.1 518.3 159.2 529 159.1 529 40.9 532.2 40.1 532.2 0 533.2 0 467.7 159.1 467.7 243.9 474.5 261 495.2 261.2 495.5 262.2 496.7" style="fill:#f3f9f6"/><path d="M1455.7,555.1v3.6l-161-4.2L1272.4,533l-83.8-13.8,7.3-20.2s74.8-11.8,76.5-11.2h.5l.5.2,1.5.5,1.2.4,5.2,1.8-82,9.4-.2,17.8,77,12.7,23.4,20.1Z" transform="translate(0.3 -0.6)" style="fill:#007eac;opacity:.6000000000000001;mix-blend-mode:multiply"/><path d="M1455.7,555.1v9.4H1295.3L1266.8,536l-87.1-14.7,16.2-22.3s74.8-11.8,76.5-11.2h.5l.5.2,1.5.5,1.2.4,5.2,1.8-82,9.4-.2,17.8,77,12.7,23.4,20.1Z" transform="translate(0.3 -0.6)" style="fill:#007eac;opacity:.6000000000000001;mix-blend-mode:multiply"/><path d="M1455.7,549.2v5.9l-156.2-4.3-23.4-20.1-77-12.7.2-17.8,82-9.4Z" transform="translate(0.3 -0.6)" style="fill:#d5e1e2"/><path d="M1455.7,488.7v60.5l-174.4-58.4,18.2-2.1Z" transform="translate(0.3 -0.6)" style="fill:#d5e1e2"/><path d="M1276.6,491.3l20.2-2.3a76.3,76.3,0,0,1,.9,9.5,166.9,166.9,0,0,0,1.2,24.5c1.1,9.2.6,27.8.6,27.8l-22.9-19.7Z" transform="translate(0.3 -0.6)" style="fill:#e7f4f5;mix-blend-mode:multiply"/><path d="M1291,532.4c1.6,4.5,2.6,9.5,4.1,14.6l-18.5-15.9V496.8C1282.6,508.5,1286.8,520.5,1291,532.4Z" transform="translate(0.3 -0.6)" style="fill:#e7f4f5;mix-blend-mode:multiply"/><polygon points="1456 470.3 1299.8 470.3 1217.2 477.2 1199.3 499.6 1276.4 512.3 1299.8 532.4 1456 536.7 1456 470.3" style="fill:#f3f9f6"/><polygon points="1456 536.8 1299.8 532.4 1456 553.4 1456 536.8" style="fill:#e7f4f5;mix-blend-mode:multiply"/><polygon points="1199.3 499.6 1276.4 512.4 1276.8 517.3 1199.3 499.6" style="fill:#fff"/><polygon points="1456 536.8 1299.8 532.4 1456 538.9 1456 536.8" style="fill:#fff"/><circle cx="1178.4" cy="103.1" r="78.6" style="fill:#fff;opacity:.2;mix-blend-mode:screen"/><circle cx="1178.4" cy="103.1" r="60.2" style="fill:#fff;opacity:.2;mix-blend-mode:screen"/><circle cx="1178.4" cy="103.1" r="38.1" style="fill:#fff;opacity:.2;mix-blend-mode:screen"/><circle cx="1178.4" cy="103.1" r="28.7" style="fill:#fff"/></g></g></svg>