<svg xmlns="http://www.w3.org/2000/svg" xmlns:xlink="http://www.w3.org/1999/xlink" width="218.9mm" height="235.8mm" viewBox="0 0 620.4 668.5"><defs><style>.a{fill:url(#a);}.b{fill:url(#b);}.c{fill:url(#c);}.d{fill:url(#d);}.e{fill:#af9c76;}.f{fill:#b4a27b;}.g{fill:#907b5a;}.h{fill:#877355;}.i{fill:url(#e);}.j{fill:url(#f);}.k{fill:url(#g);}.l{fill:url(#h);}.m{fill:url(#i);}.n{fill:url(#j);}.o{fill:url(#k);}</style><linearGradient id="a" x1="624.68" y1="479.86" x2="618.46" y2="360.13" gradientTransform="matrix(1.06, 0.09, 0.13, -1.51, -163.74, 1201.12)" gradientUnits="userSpaceOnUse"><stop offset="0" stop-color="#897353"/><stop offset="0.15" stop-color="#9e8967"/><stop offset="0.67" stop-color="#dbd0ab"/><stop offset="1" stop-color="#c5ae70"/></linearGradient><linearGradient id="b" x1="702.63" y1="406.82" x2="696.41" y2="287.09" gradientTransform="matrix(0.4, 0.04, 0.05, -0.59, 272.33, 800.55)" xlink:href="#a"/><linearGradient id="c" x1="687.45" y1="411.93" x2="687.33" y2="335.32" gradientTransform="matrix(0.4, 0.04, 0.05, -0.59, 272.33, 800.55)" gradientUnits="userSpaceOnUse"><stop offset="0" stop-color="#c6b380"/><stop offset="0.28" stop-color="#dad3b8"/><stop offset="0.59" stop-color="#d1c79f"/><stop offset="1" stop-color="#a38f6b"/></linearGradient><linearGradient id="d" x1="610.48" y1="480.78" x2="605.99" y2="407.54" gradientTransform="matrix(1.06, 0.09, 0.13, -1.51, -163.74, 1201.12)" gradientUnits="userSpaceOnUse"><stop offset="0" stop-color="#bdaa80"/><stop offset="0.28" stop-color="#ccc39d"/><stop offset="0.59" stop-color="#cdc296"/><stop offset="1" stop-color="#927e5b"/></linearGradient><linearGradient id="e" x1="140.18" y1="206.1" x2="594.1" y2="168.75" gradientTransform="matrix(1, 0, 0, -1, -22.09, 524.8)" gradientUnits="userSpaceOnUse"><stop offset="0" stop-color="#dfd5b8"/><stop offset="0.34" stop-color="#ebe3c2"/><stop offset="0.64" stop-color="#e2d9bb"/><stop offset="1" stop-color="#ccbc92"/></linearGradient><linearGradient id="f" x1="571.28" y1="542.56" x2="571.28" y2="386.99" gradientTransform="matrix(1, 0.09, 0.07, -1.33, -54.49, 621.78)" gradientUnits="userSpaceOnUse"><stop offset="0" stop-color="#694f33"/><stop offset="1" stop-color="#694f33" stop-opacity="0"/></linearGradient><linearGradient id="g" x1="553.44" y1="451.39" x2="547.22" y2="331.66" gradientTransform="matrix(1, 0, 0, -1, -22.09, 524.8)" xlink:href="#a"/><linearGradient id="h" x1="570.03" y1="422.44" x2="568.24" y2="365.97" gradientTransform="matrix(1, 0, 0, -1, -22.09, 524.8)" gradientUnits="userSpaceOnUse"><stop offset="0" stop-color="#baa877"/><stop offset="0.34" stop-color="#a38f6b"/><stop offset="0.55" stop-color="#d5c89d"/><stop offset="1" stop-color="#c2af7d"/></linearGradient><linearGradient id="i" x1="538.82" y1="456.5" x2="538.7" y2="379.89" gradientTransform="matrix(1, 0, 0, -1, -22.09, 524.8)" xlink:href="#c"/><linearGradient id="j" x1="318.45" y1="508.38" x2="325.98" y2="354.09" xlink:href="#e"/><linearGradient id="k" x1="620.86" y1="457.03" x2="620.86" y2="457.03" gradientTransform="matrix(1, 0, 0, 1, 0, 0)" xlink:href="#e"/></defs><path class="a" d="M572.9,679.3c19.6,2.6,41.9-8,47.6-56s-7.1-81.6-28.6-84.7c-22.5-.6-104.7-7.9-106,19.4-.9,96.3,50.9,117.1,87,121.3Z" transform="translate(-14.8 -11.2)"/><path class="b" d="M576,641.5c7.4,1,15.7-3.1,17.9-22s-2.7-32.1-10.7-33.3-39.3-3.1-39.8,7.6c-.3,37.9,19.1,46.1,32.6,47.7Z" transform="translate(-14.8 -11.2)"/><path class="c" d="M547.9,586.2l-3.4,32.6c9.3,1.1,30.5,7.6,31.2,7.8-5.1-1.6-6-9.8-5.6-19.5s4.9-21.9,12.8-20.9h0c-11.3-1.9-26.7-.9-35,.1Zm27.8,40.4h0Z" transform="translate(-14.8 -11.2)"/><path class="d" d="M497.3,538.5l-8.5,82.9c24.9,2.9,81.5,19.5,83.3,20-13.7-4.1-16.2-24.9-15-49.6,1.3-27,12.9-55.6,34.1-53.3h0c-26.9-3.6-71.9,1-93.9,0Zm74.8,102.9.7.2h-.7Z" transform="translate(-14.8 -11.2)"/><path class="e" d="M615.4,158.4l10.9-15.3,1-7-12.6,17.5Z" transform="translate(-14.8 -11.2)"/><path class="f" d="M615.8,150.6l1.1,4.2.3,12.3L614,173Z" transform="translate(-14.8 -11.2)"/><path class="g" d="M512.5,307.4l39.5-1.1,1.1-2.8-39.3,2.2Z" transform="translate(-14.8 -11.2)"/><path class="g" d="M529.7,317l18.7-2.2,1-3.3-20.5,3.3Z" transform="translate(-14.8 -11.2)"/><path class="h" d="M48.2,511.3,18.4,525.8l2.1-6.2,14.2-8.2Z" transform="translate(-14.8 -11.2)"/><path class="h" d="M82.1,42.5l-24.2-.4,2.9-2.6,21.8,1.2Z" transform="translate(-14.8 -11.2)"/><path class="i" d="M562,11.2a63.4,63.4,0,0,0-7.4.4C415.1,53.3,189.7,87.4,136.1,136.9S58.8,394.6,20.1,523.5l11.6-7.6-13.4,19c-10.2,68.6.3,119.2,51,123.8l503.6,20.6c3.8.2-19.8.4-37.6-11.3-57.6-37.6-24.8-193.1,25.8-349.5l-27.5-2.9,13.8-2.4,1.3-3.1-33.6-3.4,48.5-4.3a683.5,683.5,0,0,1,50-128.8l2.9-5.5V154.4l10.2-14.8c1.7-3.5,20.5-45.6-3.8-86.1C602.7,19.8,567.7,12.3,562,11.2Z" transform="translate(-14.8 -11.2)"/><path class="j" d="M562,11.2a63.4,63.4,0,0,0-7.4.4l-93.3,32-5.5,106.8,160.7,14.8V154.4l10.2-14.7C641.3,81.3,623.6,11.1,562,11.2Z" transform="translate(-14.8 -11.2)"/><path class="k" d="M554.8,169.6c18.5.5,38.5-7.6,40.1-39.5s-13.1-53.2-33.5-54-98.6.6-97.6,18.6c6.7,63.3,91,74.9,91,74.9Z" transform="translate(-14.8 -11.2)"/><path class="l" d="M528.3,122.6c3.8,13.3,13.6,22.9,24.9,22.3,9,.6,17-10.5,10.3-22.3-11.7.1-24.2,1.6-35.2,0Z" transform="translate(-14.8 -11.2)"/><path class="m" d="M471.5,136.2c23.5.5,77.8,8.2,79.6,8.5-13.2-1.9-17.2-15.5-18-31.8.3-26.9,13.8-35.8,28.8-38,0,0-77.7,1.9-87.3,3Zm79.6,8.5h0Z" transform="translate(-14.8 -11.2)"/><path class="n" d="M554.7,11.6C348.6,19.1,213.3,29.3,85.4,25.7A59.6,59.6,0,0,0,60.2,40.6l20.6,1L55.3,46.3C26.6,83.7,45.6,152.2,85.4,155.4c158.5-4.6,316.1,5.2,469.3,14.2-54.3-14.8-59.5-138.6,0-158Z" transform="translate(-14.8 -11.2)"/><path class="o" d="M620.9,457" transform="translate(-14.8 -11.2)"/></svg>