<svg xmlns="http://www.w3.org/2000/svg" viewBox="0 0 2386.4 2199"><symbol id="walrus-head" viewBox="0 0 2386.4 2199"><circle cx="435" cy="345.8" r="345.8" style="fill:#2996bd" /><path d="M736.8,176.9c-309-86.1-570,173.4-588.9,107.2-9.3-32.4-2-90.3,8.4-142.9-106.1,144.7-84,346.5,51,464.7,68,7.1,133,12.6,160,10.6,67-4.9,330.3-80,330.3-80s16.5-8.8,40.3-24A345.7,345.7,0,0,0,736.8,176.9Z" transform="translate(0 0)" style="fill:#1987a5" /><path d="M315.1,775.2S100.5,623.3,40,510.1c0,0,292.7-456.1,829-263.9,0,0,11.8,186.2-11,322.8Z" transform="translate(0 0)" style="fill:#d2f0f0" /><path d="M215.1,397.4S354.9,291.2,483.2,263.2c162.9-35.5,296.2-3.3,320.8,9.8s29.4,85.9,13.1,101.4S662.2,393.7,520.8,447,301,539.1,269.1,526.3,157.1,435,215.1,397.4Z" transform="translate(0 0)" style="fill:#e5f9f8" /><path d="M858,569c7.9-47.6,11.7-101.1,13.2-150.7-276.2-6.1-523,174-600.5,159.3-49.2-9.3-120.9-81.5-171.4-141.5-39.2,42.7-59.3,74-59.3,74,60.5,113.2,275.1,265.1,275.1,265.1Z" transform="translate(0 0)" style="fill:#c4e8e7" /><path d="M568.1,383c-6.9,16.6-23.5,38.8-32.8,50.1,20.6-13.2,27.7,5.6,15.3,24.2A131.2,131.2,0,0,1,515.2,495L457.1,381.8l61.6-34.1-7.5-16.9-66.4,26.9L432.1,333a27.7,27.7,0,1,0-14.7,6.6l10,25.9L363.1,397l7.5,16.9,66.5-23.2,45.6,118.8a132.4,132.4,0,0,1-51.7,1.2c-22-3.1-31.3-21-7.8-27.5-14.6-.6-42.2-3.1-59.2-8.9-.9,3,40.6,81.8,148.2,57.6h.1C602,467.9,571,384.4,568.1,383ZM401.9,317.3a13.1,13.1,0,1,1,17.4,6.5,13.1,13.1,0,0,1-17.4-6.5Z" transform="translate(0 0)" style="fill:#3f3f3f" /><path d="M483.2,499.1S439.8,387,439.5,384.8s-22.9,8.5-47.7,17.3c-12,4.3-19.8,4.6-24.7,3.8l3.5,8,66.5-23.2,45.6,118.8Z" transform="translate(0 0)" style="fill:#333" /><path d="M395.4,324.7c-7.2-8.4-6.6-20.7-5.8-26.2a27.8,27.8,0,0,0,10.8,37.8,28.1,28.1,0,0,0,17,3.3l10,25.9c2.9-1.3.4-10.4.4-10.4l-8.3-20.5S403.4,334.6,395.4,324.7Z" transform="translate(0 0)" style="fill:#333" /><path d="M512.2,531.9h0c24.1-17.1,39.5-35.6,49-53.6-17.5,23.7-42.2,46.1-53.7,47.2C410.7,545.9,364,474.4,364,474.4,363.1,477.3,404.6,556.1,512.2,531.9Z" transform="translate(0 0)" style="fill:#333" /><path d="M567.8,390.5c-3.6,10-16,27.3-22.2,35.4,8.3-1,12.9,5.4,13.4,13.3-.6,24.4-32.7,51.9-39.4,58s-10.5-4.8-10.5-4.8S455.7,386.7,454,382.1s4.1-6.6,4.1-6.6,44.4-21.8,51.8-26.5,4.4-5.3,2.4-9.8-7.1-2.9-7.1-2.9S456,358,447.9,360.9s-10.4-10.5-14.3-18.5-6.1-12.1-2.6-14c9.6-9.3,7.3-22.8.7-32.3-9-11.1-25.6-7.7-33.5-1.8s-6,21.2-1.8,27.4,15.6,10.8,21.3,10,10.5,16.1,13.4,23.9-1.1,12.7-1.1,12.7l-59.3,28.5c-2.8,1.2-5.6,4.8-.7,6.6,10.6-.8,56.7-17.5,65.4-20.7s7.7,2.9,7.7,2.9,36.9,94.6,43.7,112.8c4.3,17.2-4.6,20.5-43.8,17.2s-40.6-19.2-35.7-24.8,2.3-4.7.7-5.3c-15.2,1.4-36.2-5.7-36.2-5.7,20.3,22.9,46.5,37.1,67.2,42.6s43.7,4.4,59.8,1.2,23-4.2,49.5-35.9,24.1-77.1,23.1-84S569,387.2,567.8,390.5ZM401.9,317.3a13.1,13.1,0,1,1,17.4,6.5A13.1,13.1,0,0,1,401.9,317.3Z" transform="translate(0 0)" style="fill:#4f4f4f" /><path d="M435,307.3s-3.9-19-20.9-16.8C416.9,292,426.6,293.2,435,307.3Z" transform="translate(0 0)" style="fill:#595959" /><path d="M471.6,353.3l31.3-13.9s5.9-3.4,8,.9C511.9,341.9,471.6,353.3,471.6,353.3Z" transform="translate(0 0)" style="fill:#595959" /><path d="M390.3,486.1a50.1,50.1,0,0,0,15.9,1.3c2.2.1.6,3.3-3.3,2.9S391.3,486.9,390.3,486.1Z" transform="translate(0 0)" style="fill:#595959" /><path d="M567.9,397.9a145.5,145.5,0,0,1-2.6,53c1.3-13.6,3.9-25.5-.3-46.9C564.1,401,567.5,395.6,567.9,397.9Z" transform="translate(0 0)" style="fill:#595959" /><path d="M226.4,231.3s121.2-69,219.5-90.1,210-7.3,219.5-8.2S558.1-.9,398.7,29.9,186.3,153,177.7,205.5,205,242.9,226.4,231.3Z" transform="translate(0 0)" style="fill:#34a7c6" /><path d="M1929.9,1305.3c-34.9,407.4-108.6,703.4-974.6,676S36.6,1707.9,1.9,1305.3c-37-429.7,477.4-834.5,964-834.4S1966.7,875.7,1929.9,1305.3Z" transform="translate(0 0)" style="fill:#a04e32" /><path d="M508.1,1274.3s65.1-631.2,522.1-656.8,754.7,417.9,717.9,675.8S476.5,1644.6,508.1,1274.3Z" transform="translate(0 0)" style="fill:#b55f41" /><path d="M1822.3,1722.3s188.4-31.8,251.8,0,80,279.2-105.7,294.7c-176.4,14.7-210.7-124.9-259.5-202.5s-150.6-207.7-178.7-231.7S1594.6,1474.3,1822.3,1722.3Z" transform="translate(0 0)" style="fill:#b77a58" /><path d="M2085.1,1952.5c-106.3,45-215.5,32.2-263.6-39.3-58.9-87.7-208-273.5-244.9-324.1a110.1,110.1,0,0,1-18.5-39.3c-30.6,2.9-39.5,23.1-27.9,33,28.1,24,129.9,154.1,178.7,231.7s83.1,217.2,259.5,202.5C2024.1,2012.3,2061.6,1986.8,2085.1,1952.5Z" transform="translate(0 0)" style="fill:#aa6d4f" /><path d="M1821.5,1746.9s-156.8-154.2-194.6-162.5,79.5,135.5,125.9,182.9,85.1,143.3,161.1,160.3,153-11.6,171.2-44-7.1-128.4-54.9-140.4S1821.5,1746.9,1821.5,1746.9Z" transform="translate(0 0)" style="fill:#bf8567" /><circle cx="534.6" cy="1103.5" r="61.1" transform="translate(-623.7 701.2) rotate(-45)" /><circle cx="553.9" cy="1082.9" r="21.7" style="fill:#fff" /><ellipse cx="344.7" cy="1200.4" rx="74" ry="66.2" style="fill:#ffabaf" /><path d="M1391.1,1102.4a61.2,61.2,0,1,1,0,.1h0" transform="translate(0 0)" /><circle cx="1470.1" cy="1082.9" r="21.7" style="fill:#fff" /><ellipse cx="1643.4" cy="1200.4" rx="74" ry="66.2" style="fill:#ffabaf" /><path d="M1225.3,1732.4s112.9,474.3,165.8,466.5,107.4-469.7,67.9-575S1225.3,1732.4,1225.3,1732.4Z" transform="translate(0 0)" style="fill:#efefef" /><path d="M1249.1,1723s-.2-5.8-1.1-14.2c-14,14-22.7,23.6-22.7,23.6s112.9,474.3,165.8,466.5c14.6-2.1,29.4-39.3,42.3-94C1301.6,2007.7,1249.1,1723,1249.1,1723Z" transform="translate(0 0)" style="fill:#e0e0e0" /><path d="M1337.5,1844.9s51.7-52.3,81.8-49.8,14.6,210.6-7.2,228.4S1319.2,1870.4,1337.5,1844.9Z" transform="translate(0 0)" style="fill:#fff" /><path d="M801.5,1732.4s-112.9,474.3-165.8,466.5-107.4-469.7-67.9-575S801.5,1732.4,801.5,1732.4Z" transform="translate(0 0)" style="fill:#efefef" /><path d="M592.8,1663.6l8.1-68.5c-14.6,1.7-26.2,10.4-33.1,28.8-39.5,105.3,15,567.2,67.9,575,15.9,2.4,37-38.4,59-96.7C559.7,1987.7,592.8,1663.6,592.8,1663.6Z" transform="translate(0 0)" style="fill:#e0e0e0" /><path d="M976.2,1276.2s298.7-23.7,414.9,93.6c134.2,135.4,169.5,409.7,145.5,424.4s-130.9-62.7-130.9-62.7-64.5,84.8-95.8,84.8-118-92.1-118-92.1-93.1,116.1-140.2,117.9-180.6-110.6-180.6-110.6-93.1,95.9-127.2,97.7S613,1707.6,613,1707.6s-79,55.3-138.2,44.2,30.3-337.2,145.5-406.4S976.2,1276.2,976.2,1276.2Z" transform="translate(0 0)" style="fill:#ffcc8a" /><path d="M1300.9,1761.8c-37-5.1-82.6-92-123.9-91.1s-92.9,128.1-137.6,115.2-117-106.6-177.3-94.2-85.9,94.2-123.7,73.6-69.7-94.6-123-94.8-141.1,18.2-61.5-170.1c37.4-88.5,95.9-148.9,148.8-189.1-30.6,8.9-59.1,20.1-82.4,34.1-115.2,69.2-204.6,395.3-145.5,406.4S613,1707.6,613,1707.6s96.7,123.5,130.9,121.6,127.2-97.7,127.2-97.7,133.6,112.5,180.6,110.6,140.2-117.9,140.2-117.9,86.6,92.1,118,92.1,95.8-84.8,95.8-84.8,107,77.5,130.9,62.7c5.2-3.2,7.6-18.3,6.9-41.5-56.9-21.3-131.1-68.8-152.4-70C1361.7,1681,1337.9,1767,1300.9,1761.8Z" transform="translate(0 0)" style="fill:#ffba76" /><path d="M593.9,1592s33.2-197.9,176.2-250.7c94.2-34.8,446.5-41.1,531.5,13.5s191.9,266.2,180,287-79.9-17.6-101.3-11.4-54.5,54.5-74.2,61.3-104.1-89.3-124.9-87.9-97.9,97-126,104.3-136.7-90.2-174.4-84.2-84.1,58.9-110.7,60.3-58.9-51-92.2-54.9S584.2,1628.1,593.9,1592Z" transform="translate(0 0)" style="fill:#ffd2a1" /><path d="M1090.3,1290.2c0,30.5-51.1,102.6-114.1,102.6s-114.1-72.1-114.1-102.6,51.1-64.6,114.1-64.6S1090.3,1259.8,1090.3,1290.2Z" transform="translate(0 0)" style="fill:#5d0102" /><path d="M1068.7,1298.8c-3.7,18.2-47.9,54.1-91.7,45.2s-70.4-59.3-66.7-77.5,43.3-31.4,87-22.5S1072.4,1280.6,1068.7,1298.8Z" transform="translate(0 0)" style="fill:#6d050a" /><path d="M992.6,1372c-63,0-114.1-72.1-114.1-102.6a33.2,33.2,0,0,1,2.9-12.8c-12.2,10.4-19.3,22.3-19.3,33.6,0,30.5,51.1,102.6,114.1,102.6,41.6,0,78-31.5,97.9-61.6C1053.4,1353.4,1024.6,1372,992.6,1372Z" transform="translate(0 0)" style="fill:#470104" /><path d="M1010.3,1448.7c0,11.9-9.3,68.3-20.8,68.3s-20.9-56.4-20.9-68.3,9.4-31.5,20.9-31.5S1010.3,1436.7,1010.3,1448.7Z" transform="translate(0 0)" style="fill:#e1a159" /><path d="M819,1431.8c-4.4,11.1-34,60-44.6,55.7s1.5-60,6-71.1,20.3-25.8,31-21.5S823.5,1420.7,819,1431.8Z" transform="translate(0 0)" style="fill:#e1a159" /><path d="M802.1,1635.7c-4.5,11.1-34,60-44.7,55.7s1.6-60,6-71.1,20.3-25.7,31-21.5S806.5,1624.7,802.1,1635.7Z" transform="translate(0 0)" style="fill:#e1a159" /><path d="M660.1,1614.8c-4.4,11.1-34,59.9-44.7,55.7s1.6-60.1,6-71.2,20.4-25.7,31-21.5S664.5,1603.7,660.1,1614.8Z" transform="translate(0 0)" style="fill:#e1a159" /><path d="M669.8,1446.8c-7.5,9.3-49.8,47.7-58.8,40.6s18.7-57.1,26.1-66.5,26.9-18.8,35.9-11.7S677.2,1437.4,669.8,1446.8Z" transform="translate(0 0)" style="fill:#e1a159" /><path d="M968.1,1623.4c0,12-9.3,68.3-20.8,68.3s-20.8-56.3-20.8-68.3,9.3-31.4,20.8-31.4S968.1,1611.5,968.1,1623.4Z" transform="translate(0 0)" style="fill:#e1a159" /><path d="M1124.8,1628.9c3.2,11.5,9.2,68.3-1.9,71.4s-35-48.8-38.2-60.3.6-32.8,11.7-35.9S1121.7,1617.4,1124.8,1628.9Z" transform="translate(0 0)" style="fill:#e1a159" /><path d="M1155.9,1435.6c4.8,10.9,19.1,66.2,8.6,70.9s-41.8-43.1-46.7-54-4.2-32.6,6.3-37.2S1151.1,1424.7,1155.9,1435.6Z" transform="translate(0 0)" style="fill:#e1a159" /><path d="M1308.2,1548.2c4.9,11,19.2,66.3,8.6,70.9s-41.8-43.1-46.6-54-4.2-32.5,6.3-37.2S1303.4,1537.3,1308.2,1548.2Z" transform="translate(0 0)" style="fill:#e1a159" /><path d="M1327.8,1374.2c7.5,9.3,36,58.8,27.1,66.1s-51.8-30.5-59.3-39.7-12.7-30.3-3.8-37.5S1320.2,1365,1327.8,1374.2Z" transform="translate(0 0)" style="fill:#e1a159" /><path d="M1442.6,1596.6c7.5,9.3,36,58.8,27.1,66s-51.8-30.4-59.3-39.6-12.7-30.3-3.8-37.6S1435,1587.4,1442.6,1596.6Z" transform="translate(0 0)" style="fill:#e1a159" /><path d="M636.8,1782.6s60.1,44.4,81.4,72.3-12.4,175.9-33,184.5-50.8-108.1-60.7-159.8S615.8,1766.4,636.8,1782.6Z" transform="translate(0 0)" style="fill:#fff" /><path d="M250.1,1479.2a12.1,12.1,0,0,1-5.2-23c7.5-3.5,184.7-85,351.9-26.6a12,12,0,0,1-7.9,22.7h0c-157.8-54.9-332,24.9-333.8,25.7A10.8,10.8,0,0,1,250.1,1479.2Z" transform="translate(0 0)" /><path d="M254.8,1656.9a11.9,11.9,0,0,1-12.1-11.9,12.3,12.3,0,0,1,3.6-8.7c6-5.9,149.5-145.3,329.7-109.1a12,12,0,1,1-4.7,23.6h0c-167.3-33.6-306.7,101.3-308.1,102.7A12,12,0,0,1,254.8,1656.9Z" transform="translate(0 0)" /><path d="M250,1801.4a12,12,0,0,1-8.3-20.7c6.7-6.5,166.3-159.5,293.4-168.8a12,12,0,1,1,1.7,24C418.5,1644.6,260,1796.5,258.4,1798A12,12,0,0,1,250,1801.4Z" transform="translate(0 0)" /><path d="M1740.8,1479.2a12.1,12.1,0,0,0,5.1-23c-7.4-3.5-184.7-85-351.9-26.6a11.9,11.9,0,0,0-7.3,15.3,12,12,0,0,0,15.3,7.4c157.7-54.9,331.9,24.9,333.7,25.7A11.3,11.3,0,0,0,1740.8,1479.2Z" transform="translate(0 0)" /><path d="M1736.1,1656.9a11.8,11.8,0,0,0,8.5-3.6,12,12,0,0,0-.1-17h0c-6-5.9-149.5-145.3-329.7-109.1a12,12,0,1,0,4.8,23.6c167.2-33.6,306.6,101.3,308,102.7A12.2,12.2,0,0,0,1736.1,1656.9Z" transform="translate(0 0)" /><path d="M1740.8,1801.4a12.1,12.1,0,0,0,12-12.2,12,12,0,0,0-3.6-8.5c-6.8-6.5-166.4-159.5-293.4-168.8a12.2,12.2,0,0,0-12.9,11.1,12,12,0,0,0,11,12.9h.1c118.3,8.7,276.8,160.6,278.4,162.1A12,12,0,0,0,1740.8,1801.4Z" transform="translate(0 0)" /><path d="M1951.1,1636c-87.6,0-153.7-38.1-153.7-88.7s66.1-88.7,153.7-88.7,153.6,38.2,153.6,88.7S2038.6,1636,1951.1,1636Zm0-129.2c-63.4,0-105.5,24.4-105.5,40.5s42.1,40.5,105.5,40.5,105.4-24.4,105.4-40.5-42.1-40.5-105.4-40.5Z" transform="translate(0 0)" style="fill:#efefef" /><path d="M1964.2,1621.2c-87.6,0-153.6-38.1-153.6-88.7a60.2,60.2,0,0,1,11.1-34.3c-15.4,13.9-24.3,30.7-24.3,49.1,0,50.6,66.1,88.7,153.7,88.7,66.2,0,120.1-21.8,142.4-54.3C2066.7,1605.8,2019.8,1621.2,1964.2,1621.2Z" transform="translate(0 0)" style="fill:#e2e2e2" /><path d="M1958.7,1471.6c-73.8-4-135.2,22.5-137.1,59.1s56.3,69.4,130,73.3,135.2-22.5,137.1-59.1S2032.5,1475.5,1958.7,1471.6Zm-7.6,116.2c-63.4,0-105.5-24.4-105.5-40.5s42.1-40.5,105.5-40.5,105.4,24.4,105.4,40.5S2014.4,1587.8,1951.1,1587.8Z" transform="translate(0 0)" style="fill:#fff" /><path d="M2071.4,1392.6c-103.7,0-181.9-45.2-181.9-105s78.2-105,181.9-105,181.8,45.1,181.8,105S2175,1392.6,2071.4,1392.6Zm0-152.9c-75.1,0-124.9,28.8-124.9,47.9s49.8,47.9,124.9,47.9,124.8-28.8,124.8-47.9S2146.4,1239.7,2071.4,1239.7Z" transform="translate(0 0)" style="fill:#efefef" /><path d="M2086.9,1375.1c-103.7,0-181.9-45.2-181.9-105,0-14.6,4.7-28.3,13.2-40.7-18.3,16.4-28.7,36.3-28.7,58.2,0,59.8,78.2,105,181.9,105,78.4,0,142.2-25.8,168.6-64.3C2208.2,1356.9,2152.7,1375.1,2086.9,1375.1Z" transform="translate(0 0)" style="fill:#e2e2e2" /><path d="M2080.4,1197.9c-87.4-4.7-160,26.7-162.3,70s66.6,82.2,153.9,86.8,160.1-26.6,162.4-70S2167.7,1202.5,2080.4,1197.9Zm-9,137.6c-75.1,0-124.9-28.8-124.9-47.9s49.8-47.9,124.9-47.9,124.8,28.8,124.8,47.9S2146.4,1335.5,2071.4,1335.5Z" transform="translate(0 0)" style="fill:#fff" /><path d="M2166.5,1095.2c-125.4,0-220-54.6-220-126.9s94.6-127,220-127,219.9,54.6,219.9,127S2291.9,1095.2,2166.5,1095.2Zm0-184.9c-90.8,0-151,34.9-151,58s60.2,57.9,151,57.9,150.9-34.9,150.9-57.9S2257.2,910.3,2166.5,910.3Z" transform="translate(0 0)" style="fill:#efefef" /><path d="M2185.3,1074.1c-125.4,0-220-54.6-220-127,0-17.6,5.7-34.2,16-49.2-22.2,19.9-34.8,43.9-34.8,70.4,0,72.3,94.6,126.9,220,126.9,94.8,0,172-31.2,204-77.7C2332,1052.1,2264.9,1074.1,2185.3,1074.1Z" transform="translate(0 0)" style="fill:#e2e2e2" /><path d="M2177.4,859.8c-105.6-5.6-193.5,32.3-196.3,84.7s80.6,99.4,186.2,105,193.5-32.3,196.3-84.7S2283,865.4,2177.4,859.8Zm-10.9,166.4c-90.8,0-151-34.9-151-57.9s60.2-58,151-58,150.9,34.9,150.9,58S2257.2,1026.2,2166.5,1026.2Z" transform="translate(0 0)" style="fill:#fff" /></symbol></svg>