<svg xmlns="http://www.w3.org/2000/svg" viewBox="0 0 4000 4617.3"><symbol id="walrus-body" viewBox="0 0 4000 4617.3"><circle cx="1155.7" cy="345.8" r="345.8" style="fill:#2996bd" /><path d="M1457.3,176.9c-309-86.1-570,173.4-588.9,107.2-9.3-32.4-2-90.3,8.4-142.9-106.1,144.7-84,346.5,51,464.7,68,7.1,133,12.6,160,10.6,67-4.9,330.3-80,330.3-80s16.5-8.8,40.3-24A345.7,345.7,0,0,0,1457.3,176.9Z" transform="translate(0.1 0)" style="fill:#1987a5" /><path d="M1035.6,775.2S821,623.3,760.5,510.1c0,0,292.7-456.1,829-263.9,0,0,11.8,186.2-11,322.8Z" transform="translate(0.1 0)" style="fill:#d2f0f0" /><path d="M935.6,397.4s139.8-106.2,268.1-134.2c162.9-35.5,296.2-3.3,320.8,9.8s29.4,85.9,13.1,101.4-154.9,19.3-296.3,72.6-219.8,92.1-251.7,79.3S877.6,435,935.6,397.4Z" transform="translate(0.1 0)" style="fill:#e5f9f8" /><path d="M1578.5,569c7.9-47.6,11.7-101.1,13.2-150.7-276.2-6.1-523,174-600.5,159.3-49.2-9.3-120.9-81.5-171.4-141.5-39.2,42.7-59.3,74-59.3,74,60.5,113.2,275.1,265.1,275.1,265.1Z" transform="translate(0.1 0)" style="fill:#c4e8e7" /><path d="M1288.6,383c-6.9,16.6-23.5,38.8-32.8,50.1,20.6-13.2,27.7,5.6,15.3,24.2a131.2,131.2,0,0,1-35.4,37.7l-58.1-113.2,61.6-34.1-7.5-16.9-66.4,26.9L1152.6,333a27.7,27.7,0,1,0-14.7,6.6l10,25.9L1083.6,397l7.5,16.9,66.5-23.2,45.6,118.8a132.4,132.4,0,0,1-51.7,1.2c-22-3.1-31.3-21-7.8-27.5-14.6-.6-42.2-3.1-59.2-8.9-.9,3,40.6,81.8,148.2,57.6h.1C1322.5,467.9,1291.5,384.4,1288.6,383Zm-166.2-65.7a13.1,13.1,0,1,1,17.4,6.5,13.1,13.1,0,0,1-17.4-6.5Z" transform="translate(0.1 0)" style="fill:#3f3f3f" /><path d="M1203.7,499.1S1160.3,387,1160,384.8s-22.9,8.5-47.7,17.3c-12,4.3-19.8,4.6-24.7,3.8l3.5,8,66.5-23.2,45.6,118.8Z" transform="translate(0.1 0)" style="fill:#333" /><path d="M1115.9,324.7c-7.2-8.4-6.6-20.7-5.8-26.2a27.8,27.8,0,0,0,27.8,41.1l10,25.9c2.9-1.3.4-10.4.4-10.4l-8.3-20.5S1123.9,334.6,1115.9,324.7Z" transform="translate(0.1 0)" style="fill:#333" /><path d="M1232.7,531.9h.1c24-17.1,39.4-35.6,48.9-53.6-17.5,23.7-42.2,46.1-53.7,47.2-96.8,20.4-143.5-51.1-143.5-51.1C1083.6,477.3,1125.1,556.1,1232.7,531.9Z" transform="translate(0.1 0)" style="fill:#333" /><path d="M1288.3,390.5c-3.6,10-16,27.3-22.2,35.4,8.3-1,12.9,5.4,13.4,13.3-.6,24.4-32.7,51.9-39.4,58s-10.5-4.8-10.5-4.8-53.4-105.7-55.1-110.3,4.1-6.6,4.1-6.6,44.4-21.8,51.8-26.5,4.4-5.3,2.4-9.8-7.1-2.9-7.1-2.9-49.2,21.7-57.3,24.6-10.4-10.5-14.3-18.5-6.1-12.1-2.6-14c9.6-9.3,7.3-22.8.7-32.3-9-11.1-25.6-7.7-33.5-1.8s-6,21.2-1.8,27.4,15.6,10.8,21.3,10,10.5,16.1,13.4,23.9-1.1,12.7-1.1,12.7l-59.3,28.5c-2.8,1.2-5.6,4.8-.7,6.6,10.6-.8,56.7-17.5,65.4-20.7s7.7,2.9,7.7,2.9,36.9,94.6,43.7,112.8c4.3,17.2-4.6,20.5-43.8,17.2s-40.6-19.2-35.7-24.8,2.3-4.7.7-5.3c-15.2,1.4-36.2-5.7-36.2-5.7,20.3,22.9,46.5,37.1,67.2,42.6s43.7,4.4,59.8,1.2,23-4.2,49.5-35.9,24.1-77.1,23.1-84S1289.5,387.2,1288.3,390.5Zm-165.9-73.2a13.1,13.1,0,1,1,17.4,6.5A13.1,13.1,0,0,1,1122.4,317.3Z" transform="translate(0.1 0)" style="fill:#4f4f4f" /><path d="M1155.5,307.3s-3.9-19-20.9-16.8C1137.4,292,1147.1,293.2,1155.5,307.3Z" transform="translate(0.1 0)" style="fill:#595959" /><path d="M1192.1,353.3l31.3-13.9s5.9-3.4,8,.9C1232.4,341.9,1192.1,353.3,1192.1,353.3Z" transform="translate(0.1 0)" style="fill:#595959" /><path d="M1110.8,486.1a50.1,50.1,0,0,0,15.9,1.3c2.2.1.6,3.3-3.3,2.9S1111.8,486.9,1110.8,486.1Z" transform="translate(0.1 0)" style="fill:#595959" /><path d="M1288.4,397.9a145.5,145.5,0,0,1-2.6,53c1.3-13.6,3.9-25.5-.3-46.9C1284.6,401,1288,395.6,1288.4,397.9Z" transform="translate(0.1 0)" style="fill:#595959" /><path d="M946.9,231.3s121.2-69,219.5-90.1,210-7.3,219.5-8.2S1278.6-.9,1119.2,29.9,906.8,153,898.2,205.5,925.5,242.9,946.9,231.3Z" transform="translate(0.1 0)" style="fill:#34a7c6" /><path d="M2798,1759a26.7,26.7,0,0,1,19.3,6.6c45.7,40.9,282.3,244,561.7,329.8,227.7,69.9,336.7,90.1,378.8,95.9a26.2,26.2,0,0,1,22.8,25.3c2.8,91.3,11.4,427.2-12.3,511.2-25.8,91.8-772.7-250.4-859.5-290.5a25.8,25.8,0,0,1-12.3-11.9c-34.9-68.3-279-547.6-286.5-600.7C2603,1775.5,2755,1761.9,2798,1759Z" transform="translate(0.1 0)" style="fill:#233535" /><path d="M3768.3,2727.8c10.6-37.3,14.7-124.4,15.8-217.7-224.9-64.5-731.6-398.5-772.4-503.3a993.7,993.7,0,0,1-37.2-117.8c-80.7-56.6-137.2-105.5-157.2-123.4a26.7,26.7,0,0,0-19.3-6.6c-31.1,2.1-119.1,9.8-162.9,32.5,1,34.7,3.7,71.2,2.2,105,66.2,150.2,231,473.7,259.2,528.9a25.8,25.8,0,0,0,12.3,11.9C2995.6,2477.4,3742.5,2819.6,3768.3,2727.8Z" transform="translate(0.1 0)" style="fill:#1a2828" /><path d="M2820.7,1949.8c136.1,108.7,816.8,642.4,1160.4,717.5a23.9,23.9,0,0,1,18.3,28.4,26,26,0,0,1-2.1,5.9c-38.1,75.6-142.1,278.7-192.6,342.2a23.5,23.5,0,0,1-25.8,7.7c-70.7-21.9-382.7-128.1-766.5-403.5-367.6-263.8-269.7-591-229.1-688.7a24.1,24.1,0,0,1,31.5-13A27,27,0,0,1,2820.7,1949.8Z" transform="translate(0.1 0)" style="fill:#233535" /><path d="M3427.2,2727.8c-32.9-104.1-129-316.5-200.8-473.6-189-133.2-347.4-257.8-405.7-304.4a24.1,24.1,0,0,0-33.8,3.5,20.1,20.1,0,0,0-3.5,6c-40.7,97.7-138.6,424.9,229,688.7,383.8,275.4,695.8,381.6,766.5,403.5a23.5,23.5,0,0,0,25.8-7.7c9.5-12,21-28.9,33.5-49C3713.2,2969.5,3472.2,2870.5,3427.2,2727.8Z" transform="translate(0.1 0)" style="fill:#1a2828" /><path d="M3427.1,2478.1c3.3,1.7,397.3,193.9,451.1,215.3s-22.1,179.9-54.5,215.2-249.9-95.1-297.9-143S3357.2,2444.6,3427.1,2478.1Z" transform="translate(0.1 0)" style="fill:#2e4241" /><path d="M2796.7,1930.5s318.1,92.9,504.8,641.5,114.8,777.1,0,802.9-446.4-397.8-446.4-397.8Z" transform="translate(0.1 0)" style="fill:#a95938" /><path d="M3407.5,3226.4c-241.5,86.2-418.1-185.1-418.1-185.1s-12.4-74.2-80.7-75.9c-27.8-.8-34.6,14.6-32.7,37.7,74.5,91.9,328.1,393.8,425.5,371.8C3349.7,3364.1,3390.4,3317.5,3407.5,3226.4Z" transform="translate(0.1 0)" style="fill:#a04e32" /><path d="M3058.1,2126.1c83.7,96.7,172.9,238.8,243.4,445.9,52.3,153.5,84.3,282,100.7,387.9-115.1,48.9-271.2,105.6-443,141.9-60.8-69.4-104.1-124.7-104.1-124.7l-43.6-780.9C2904.6,2165,2992.8,2138.7,3058.1,2126.1Z" transform="translate(0.1 0)" style="fill:#d2f0f0" /><path d="M2986.3,3010.7c-57.1-71.5-55.6-226.3-53.4-229,0,0-36.2-61.4-91.4-49.7l13.6,245.1s43.3,55.3,104.1,124.7c171.8-36.3,327.9-93,443-141.9-2.1-14-4.6-28.4-7.3-43.3C3276.2,2967.6,3029.4,3064.6,2986.3,3010.7Z" transform="translate(0.1 0)" style="fill:#c4e8e7" /><path d="M3301.5,2572q25,73.6,44.1,139.6c-110.4,54.7-278.1,114.6-497.8,134.4l-51.1-915.5S3114.8,2023.4,3301.5,2572Z" transform="translate(0.1 0)" style="fill:#2996bd" /><path d="M2826.8,2470.3l21,375.7c219.7-19.8,387.4-79.7,497.8-134.4q-5.7-19.7-12-40.2c-107.3,52.5-316.8,121.6-351.6,65.1-44.2-71.9-34.8-243.7-34.8-243.7S2886.1,2475.1,2826.8,2470.3Z" transform="translate(0.1 0)" style="fill:#1987a5" /><path d="M3251.2,2441.4c-115.9,59.2-256.4,117.5-417.1,159.4l-37.4-670.3S3062.8,2008.2,3251.2,2441.4Z" transform="translate(0.1 0)" style="fill:#d2f0f0" /><path d="M2980.4,2467.1c-63-66.6-64-251.3-64.6-255.2,0,0-56.9-16.7-103.9-8.9l22.2,397.8c160.7-41.9,301.2-100.2,417.1-159.4-3.9-9-7.9-17.8-11.9-26.5C3149.3,2458.2,3020.2,2509.1,2980.4,2467.1Z" transform="translate(0.1 0)" style="fill:#c4e8e7" /><path d="M3112,2194.1c-85.8,27.8-186.9,53-296.9,66.2l-18.4-329.8S2953.8,1976.4,3112,2194.1Z" transform="translate(0.1 0)" style="fill:#2996bd" /><path d="M3089.6,2164.4c-64.7,17.2-153.4,33.1-173.8-1.5-24.7-42.2-33.5-144-36.3-192.1-50.3-30.8-82.8-40.3-82.8-40.3l18.4,329.8c110-13.2,211.1-38.4,296.9-66.2C3104.6,2183.8,3097.1,2173.9,3089.6,2164.4Z" transform="translate(0.1 0)" style="fill:#1987a5" /><path d="M3031.5,2871.1s249.4-99,271.4-89.4,46.7,85,35.2,105.9-232.7,94.2-278.3,89.5S2995.1,2892.6,3031.5,2871.1Z" transform="translate(0.1 0)" style="fill:#e5f9f8" /><path d="M3031.5,2595s155.9-78.6,182.3-74.8,68.7,111,61.6,133.1-197.5,73.7-231,55S2997.6,2611.7,3031.5,2595Z" transform="translate(0.1 0)" style="fill:#34a7c6" /><path d="M2979.6,2270.6s94.9-28.9,120.2-18.7,81.2,105,72.6,133.9-124.2,62.8-160.7,40.4S2951,2278.5,2979.6,2270.6Z" transform="translate(0.1 0)" style="fill:#e5f9f8" /><path d="M2934.5,2137.6s-26.1-88.6-10.7-101.6,118.5,87.3,116.6,106.6S2942.9,2170.8,2934.5,2137.6Z" transform="translate(0.1 0)" style="fill:#34a7c6" /><path d="M3168.3,3094.6s172.2-83,193.2-72.1,30.8,131.7-15.6,164.4C3279.2,3233.8,3105,3132.1,3168.3,3094.6Z" transform="translate(0.1 0)" style="fill:#b55f41" /><path d="M619.4,1930.5s-318,92.9-504.8,641.5-114.8,777.1,0,802.9S561,2977.1,561,2977.1Z" transform="translate(0.1 0)" style="fill:#a95938" /><path d="M212.4,3338.5C3.8,3236.8,70.5,2910.4,70.5,2910.4a271.9,271.9,0,0,0-37-54.4c-76.1,345.6-11.4,498.1,81.1,518.9C139.1,3380.4,173.5,3365.5,212.4,3338.5Z" transform="translate(0.1 0)" style="fill:#a04e32" /><path d="M358,2126.1c-83.7,96.7-172.9,238.8-243.4,445.9-52.3,153.5-84.3,282-100.7,387.9,115.1,48.9,271.2,105.6,443,141.9,60.8-69.4,104.1-124.7,104.1-124.7l43.6-780.9C511.5,2165,423.3,2138.7,358,2126.1Z" transform="translate(0.1 0)" style="fill:#d2f0f0" /><path d="M456.9,3101.8c14.8-16.9,28.6-32.9,40.9-47.6-139.1-8.9-361.5-78.4-394-149.9-40.1-88.2,29.3-197.7,29.3-197.7s-18.3-36.5-44.8-54.1C51.3,2771,27.4,2873,13.9,2959.9,129,3008.8,285.1,3065.5,456.9,3101.8Z" transform="translate(0.1 0)" style="fill:#c4e8e7" /><path d="M114.6,2572q-25,73.6-44.1,139.6c110.4,54.7,278.1,114.6,497.8,134.4l51.1-915.5S301.4,2023.4,114.6,2572Z" transform="translate(0.1 0)" style="fill:#2996bd" /><path d="M70.5,2711.6c110.4,54.7,278.1,114.6,497.8,134.4l2.9-52.7c-132.7,8-371.6-52-406.3-125.4-40.9-86.9,49-246.5,53.7-251.1,0,0-12.4-11-32.8-21.4A1644.9,1644.9,0,0,0,114.6,2572Q89.6,2645.6,70.5,2711.6Z" transform="translate(0.1 0)" style="fill:#1987a5" /><path d="M164.9,2441.4c116,59.2,256.4,117.5,417.1,159.4l37.4-670.3S353.3,2008.2,164.9,2441.4Z" transform="translate(0.1 0)" style="fill:#d2f0f0" /><path d="M582,2600.8l2.7-48.3c-97.1-22.7-266.9-78.3-292.6-154.4-34.7-102.9,73.4-204.5,73.4-204.5s-13.5-17.1-32.2-37.8c-57.2,71.5-115.8,164.7-168.4,285.6C280.9,2500.6,421.3,2558.9,582,2600.8Z" transform="translate(0.1 0)" style="fill:#c4e8e7" /><path d="M304.1,2194.1c85.8,27.8,186.9,53,296.9,66.2l18.4-329.8S462.3,1976.4,304.1,2194.1Z" transform="translate(0.1 0)" style="fill:#2996bd" /><path d="M304.1,2194.1c85.8,27.8,186.9,53,296.9,66.2l2.3-41c-76.4-7.6-200.3-24.4-217.7-53.7-10.8-18,3.6-56.2,23.7-94.2C375.5,2104.5,339.8,2144.9,304.1,2194.1Z" transform="translate(0.1 0)" style="fill:#1987a5" /><path d="M140.1,3064.9s164.8,28.9,180.8,58.9-60.7,145.6-108.5,144.5S64.9,3049,140.1,3064.9Z" transform="translate(0.1 0)" style="fill:#b55f41" /><path d="M180.7,2809.9s242.6,53.7,259.6,67.3,25.2,81.8,17.5,105.6-207.5-6.6-277.1-69.9S136.9,2800,180.7,2809.9Z" transform="translate(0.1 0)" style="fill:#e5f9f8" /><path d="M255.8,2540s157.2,41.2,177.3,60.8,35.5,108.3,19.5,127-201.5-39-234.6-83.8S220.3,2530.3,255.8,2540Z" transform="translate(0.1 0)" style="fill:#34a7c6" /><path d="M374.8,2260.3s83,9.9,93.3,24.3,12.5,152.4-6.4,166.1-111.3-37.4-129.7-78.6S344.3,2261.7,374.8,2260.3Z" transform="translate(0.1 0)" style="fill:#e5f9f8" /><path d="M415.7,2126.1s54.6-88.6,78.6-90,11.2,110.6,0,129.8S391,2162.7,415.7,2126.1Z" transform="translate(0.1 0)" style="fill:#34a7c6" /><path d="M2806.1,4005.1s525.7-3534.2-1049-3534.2H1636.3c-1574.7,0-1049,3534.2-1049,3534.2C497.1,4054-36.6,4310.9,78.1,4459.2S593.4,4651.9,809,4590.7s507.6-189.6,507.6-189.6c146.8,42.8,319.7,50.2,319.7,50.2h120.8s172.9-7.4,319.7-50.2c0,0,292,128.5,507.6,189.6s616.2,16.9,730.9-131.5S2896.4,4054,2806.1,4005.1Z" transform="translate(0.1 0)" style="fill:#a95938" /><path d="M344.2,4394.7c-6.3-152.3,425.3-260.7,450.4-343.1S683.2,2981.2,690.2,2982.8s1593.4-93.5,2199.7-129.7c4.8-436.5-22.9-930.1-130.4-1354.4-499.1,180.9-1660.5,323.9-1739.8-184.3-50.4-323.5,125-602.7,282.7-781.4C141.1,1005,587.3,4005.1,587.3,4005.1,497.1,4054-36.6,4310.9,78.1,4459.2S593.4,4651.9,809,4590.7s507.6-189.6,507.6-189.6C710.7,4591.1,350.4,4546.9,344.2,4394.7Z" transform="translate(0.1 0)" style="fill:#a04e32" /><path d="M1228.6,1274.3s65.1-631.2,522.1-656.8,754.7,417.9,717.9,675.8S1197,1644.6,1228.6,1274.3Z" transform="translate(0.1 0)" style="fill:#b55f41" /><path d="M3315.3,4459.2c13.8-17.8,18.2-37.2,15.1-57.6-419.9,171.3-1253.6-.5-1253.6-.5s292,128.5,507.6,189.6S3200.6,4607.6,3315.3,4459.2Z" transform="translate(0.1 0)" style="fill:#a04e32" /><path d="M1219.7,3425s1413-74.2,1463.2,4.8-10.1,552.6,0,644.9,493.7,188.7,449.6,273-865.5-93-1002.4-48.2c-443.1,145.1-645,47.8-786.7,15.7s-537.7,178.5-740.3,113c-179.9-58.2,345.7-292.3,369.7-389.1S872.6,3458.8,1219.7,3425Z" transform="translate(0.1 0)" style="fill:#b55f41" /><circle cx="1710.1" cy="3194" r="857.6" style="fill:#ffcc8a" /><path d="M1888.5,3888.7c-473.6,0-857.6-384-857.6-857.6,0-207.5,73.6-397.7,196.2-546-226.2,154.4-374.8,414.3-374.8,708.9,0,473.6,384,857.6,857.7,857.6,266.2,0,504-121.3,661.3-311.6A853.8,853.8,0,0,1,1888.5,3888.7Z" transform="translate(0.1 0)" style="fill:#ffba76" /><path d="M1407.1,3425c5.2,0,580.9,18.6,881-44.7s4.1,451.1-407.8,424.9S1179.5,3423,1407.1,3425Z" transform="translate(0.1 0)" style="fill:#ffd2a1" /><path d="M2881.7,3148.4c6.7-153.8,10.3-320.2,8-492.3-1023.7,353.1-2008.9,116.6-2386-1.8-2.2,171.2,1.2,336.8,7.8,490,281.8,78.2,713.5,167,1221.7,167C2087.2,3311.3,2478.3,3268.2,2881.7,3148.4Z" transform="translate(0.1 0)" style="fill:#d2f0f0" /><path d="M2883.1,3113.7c-375.6,102.8-766,154.6-1095.9,154.6-497.2,0-921.2-84.9-1203.1-161.8a26.3,26.3,0,0,1-19.4-24.4c-5.1-123.9-8.1-255.6-7.7-391.6a26.7,26.7,0,0,0-19-25.6h-.5c-11.8-3.5-23-7-33.8-10.4-2.2,171.2,1.2,336.8,7.8,490,281.8,78.2,713.5,167,1221.7,167,354,0,745.1-43.1,1148.5-162.9C2882.2,3136.9,2882.7,3125.4,2883.1,3113.7Z" transform="translate(0.1 0)" style="fill:#c4e8e7" /><path d="M2888.5,2940.3c3.2-155.9,2.6-320.6-4.2-487.9-1004,340.5-1988.6,117.5-2375.1-1.7-6.9,166.3-7.5,330.2-4.3,485.4,281.8,78.2,720.3,169.5,1228.3,169.5C2087.8,3105.6,2484.3,3060.6,2888.5,2940.3Z" transform="translate(0.1 0)" style="fill:#2996bd" /><path d="M2889.2,2900.7h0c-373.4,101.4-738.1,140-1066.8,140-489.7,0-914.8-84.7-1197.3-160.9a43,43,0,0,1-31.7-40.8c-1.8-106.9-1.7-217.6,1-330.1a43.3,43.3,0,0,0-24.8-40.2l-15.1-4.4c-10-1.9-26.3-4.2-45.6-6.4-6.6,163.9-7.2,325.2-4,478.2,281.8,78.2,720.3,169.5,1228.3,169.5,354.6,0,751.1-45,1155.3-165.3C2888.7,2927.2,2889,2914,2889.2,2900.7Z" transform="translate(0.1 0)" style="fill:#1987a5" /><path d="M1786,2977.1h-6.9c-559-.7-967.5-93.2-1088.2-124a35.9,35.9,0,0,1-26.2-43.6c.1-.5.3-1,.4-1.6l15.7-53.9a36.3,36.3,0,0,1,43.8-25.1c115.7,29,517.7,119,1054.7,119.6,525.5.4,862.4-72.8,965-98.7a36.3,36.3,0,0,1,43.6,24.5l16.7,53.8a35.9,35.9,0,0,1-23.5,45.1l-2,.6C2671.1,2901.7,2329.4,2977.1,1786,2977.1Z" transform="translate(0.1 0)" style="fill:#34a7c6" /><path d="M2889.3,2626.5c-2.6-157.9-10.2-320.2-24.8-481.4-992.4,333.2-1944.2,117-2335.4-2.5-14.6,160.7-22.2,322.5-24.9,480,281.5,78.7,716.4,169,1229,169C2089.4,2791.6,2483.3,2748,2889.3,2626.5Z" transform="translate(0.1 0)" style="fill:#d2f0f0" /><path d="M1810.1,2728.8c-476.2,0-885.4-78-1166.8-152.1a81.4,81.4,0,0,1-60.8-80.9c2.7-104,7.6-209.5,15.3-315a83,83,0,0,1,3.1-17.1c-25.7-7.3-49.7-14.4-71.8-21.1-14.6,160.7-22.2,322.5-24.9,480,281.5,78.7,716.4,169,1229,169,356.2,0,750.1-43.6,1156.1-165.1-.2-13.4-.5-26.9-.8-40.4C2510,2690.6,2143.6,2728.8,1810.1,2728.8Z" transform="translate(0.1 0)" style="fill:#c4e8e7" /><path d="M2878.3,2331c-9.3-158.6-24.7-318.1-47.9-473.5-952.1,308-1861.3,116.1-2266.9-3.4-23.3,155.2-38.7,314.5-48.2,472.8,281.9,78,712,165.9,1217.9,165.9C2086.2,2492.8,2476.2,2450,2878.3,2331Z" transform="translate(0.1 0)" style="fill:#2996bd" /><path d="M1728.9,2672.9H1724c-483.9-.5-932.1-101.7-1050.5-130.7a30.2,30.2,0,0,1-22.1-36.4c.1-.2.1-.5.2-.7l17.4-65.7a30.3,30.3,0,0,1,36.3-21.8c114.8,27.7,556.1,126.3,1018.8,126.8h4.6c500.8,0,913.9-83.1,1023.9-107.4a30.2,30.2,0,0,1,35.8,22.4l16.3,66A30.1,30.1,0,0,1,2783,2562l-.9.2C2668.4,2587.7,2249.8,2672.9,1728.9,2672.9Z" transform="translate(0.1 0)" style="fill:#e5f9f8" /><path d="M1810.4,2440.2c-468.1,0-871.4-75.4-1152.3-148.4a81.9,81.9,0,0,1-61.2-85c7.4-104.4,17.5-209,30.8-312.2a78.2,78.2,0,0,1,5.5-20.7c-24.6-6.7-47.9-13.4-69.7-19.8-23.3,155.2-38.7,314.5-48.2,472.8,281.9,78,712,165.9,1217.9,165.9,353,0,743-42.8,1145.1-161.8l-1.8-30.2C2502.3,2402.7,2140.2,2440.2,1810.4,2440.2Z" transform="translate(0.1 0)" style="fill:#1987a5" /><path d="M1798.2,2385.8c-520.1,0-975.4-112.2-1090.9-143a28,28,0,0,1-19.7-34.5c0-.1.1-.3.1-.4l20.1-69.6a27.9,27.9,0,0,1,33.9-19.4c113.8,30,581.7,144.1,1094.8,138.2,524.1-5.8,810.3-101.2,890.7-132.6a27.8,27.8,0,0,1,35.2,14.1l31.4,65.4a27.9,27.9,0,0,1-12.6,37.3,18.9,18.9,0,0,1-2.1.9c-88.3,35.3-390.1,137.3-941.2,143.4Z" transform="translate(0.1 0)" style="fill:#34a7c6" /><path d="M511.1,1785.1l49.3-118.4a65.3,65.3,0,0,1,82-36.8c235.8,82.3,1156.5,356.6,2101,1.4,33.7-12.7,71.3,3.2,84.7,36.5l94.3,233c13.7,33.9-2.8,73-37,86-407.1,154.4-805.8,206.8-1159.5,206.8-592.5,0-1058.4-147-1224.5-207.3a65.7,65.7,0,0,1-39.2-84.1l1.2-3Z" transform="translate(0.1 0)" style="fill:#233535" /><path d="M1844,2137.8c-592.6,0-1058.5-147-1224.6-207.3a65.7,65.7,0,0,1-39.2-84.1l1.2-3,47.7-114.1,37.9-91-24.6-8.4a65.3,65.3,0,0,0-82,36.8l-49.3,118.4-47.7,114.1a65.5,65.5,0,0,0,35,85.9l3,1.2c166.1,60.3,632,207.3,1224.5,207.3,353.7,0,752.4-52.4,1159.5-206.8a63.9,63.9,0,0,0,30.4-24.1C2539.3,2092.7,2172.2,2137.8,1844,2137.8Z" transform="translate(0.1 0)" style="fill:#1a2828" /><path d="M1803,2062.1c-552.6,0-994.3-139.3-1103.1-176.7a25.4,25.4,0,0,1-15.7-32.2l.3-.7,38.3-103.1a25.2,25.2,0,0,1,31.7-15.3c156.4,52.3,1079.4,333.7,1951.6,17a25.1,25.1,0,0,1,32.3,14.7l38.7,102.8a25.7,25.7,0,0,1-15.1,33.1h-.1C2433.3,2021.3,2101.9,2062.1,1803,2062.1Z" transform="translate(0.1 0)" style="fill:#2e4241" /><path d="M2542.8,1722.3s188.4-31.8,251.8,0,80,279.2-105.7,294.7c-176.4,14.7-210.7-124.9-259.5-202.5s-150.6-207.7-178.7-231.7S2315.1,1474.3,2542.8,1722.3Z" transform="translate(0.1 0)" style="fill:#b77a58" /><path d="M2805.6,1952.5c-106.3,45-215.5,32.2-263.6-39.3-58.9-87.7-208-273.5-244.9-324.1a110.1,110.1,0,0,1-18.5-39.3c-30.6,2.9-39.5,23.1-27.9,33,28.1,24,129.9,154.1,178.7,231.7s83.1,217.2,259.5,202.5C2744.6,2012.3,2782.1,1986.8,2805.6,1952.5Z" transform="translate(0.1 0)" style="fill:#aa6d4f" /><path d="M2542,1746.9s-156.8-154.2-194.6-162.5,79.5,135.5,125.9,182.9,85.1,143.3,161.1,160.3,153-11.6,171.2-44-7.1-128.4-54.9-140.4S2542,1746.9,2542,1746.9Z" transform="translate(0.1 0)" style="fill:#bf8567" /><circle cx="1255.2" cy="1103.5" r="61.1" /><circle cx="1274.5" cy="1082.9" r="21.7" style="fill:#fff" /><ellipse cx="1065.3" cy="1200.4" rx="74" ry="66.2" style="fill:#ffabaf" /><path d="M2111.6,1102.4a61.2,61.2,0,1,1,0,.1h0" transform="translate(0.1 0)" /><circle cx="2190.8" cy="1082.9" r="21.7" style="fill:#fff" /><ellipse cx="2364.1" cy="1200.4" rx="74" ry="66.2" style="fill:#ffabaf" /><path d="M1945.8,1732.4s112.9,474.3,165.8,466.5,107.4-469.7,67.9-575S1945.8,1732.4,1945.8,1732.4Z" transform="translate(0.1 0)" style="fill:#efefef" /><path d="M1969.6,1723s-.2-5.8-1.1-14.2c-14,14-22.7,23.6-22.7,23.6s112.9,474.3,165.8,466.5c14.6-2.1,29.4-39.3,42.3-94C2022.1,2007.7,1969.6,1723,1969.6,1723Z" transform="translate(0.1 0)" style="fill:#e0e0e0" /><path d="M2058,1844.9s51.7-52.3,81.8-49.8,14.6,210.6-7.2,228.4S2039.7,1870.4,2058,1844.9Z" transform="translate(0.1 0)" style="fill:#fff" /><path d="M1522,1732.4s-112.9,474.3-165.8,466.5-107.4-469.7-67.9-575S1522,1732.4,1522,1732.4Z" transform="translate(0.1 0)" style="fill:#efefef" /><path d="M1313.3,1663.6l8.1-68.5c-14.6,1.7-26.2,10.4-33.1,28.8-39.5,105.3,15,567.2,67.9,575,15.9,2.4,37-38.4,59-96.7C1280.2,1987.7,1313.3,1663.6,1313.3,1663.6Z" transform="translate(0.1 0)" style="fill:#e0e0e0" /><path d="M1696.7,1276.2s298.7-23.7,414.9,93.6c134.2,135.4,169.5,409.7,145.5,424.4s-130.9-62.7-130.9-62.7-64.5,84.8-95.8,84.8-118-92.1-118-92.1-93.1,116.1-140.2,117.9-180.6-110.6-180.6-110.6-93.1,95.9-127.2,97.7-130.9-121.6-130.9-121.6-79,55.3-138.2,44.2,30.3-337.2,145.5-406.4S1696.7,1276.2,1696.7,1276.2Z" transform="translate(0.1 0)" style="fill:#ffcc8a" /><path d="M2021.4,1761.8c-37-5.1-82.6-92-123.9-91.1s-92.9,128.1-137.6,115.2-117-106.6-177.3-94.2-85.9,94.2-123.7,73.6-69.7-94.6-123-94.8-141.1,18.2-61.5-170.1c37.4-88.5,95.9-148.9,148.8-189.1-30.6,8.9-59.1,20.1-82.4,34.1-115.2,69.2-204.6,395.3-145.5,406.4s138.2-44.2,138.2-44.2,96.7,123.5,130.9,121.6,127.2-97.7,127.2-97.7,133.6,112.5,180.6,110.6,140.2-117.9,140.2-117.9,86.6,92.1,118,92.1,95.8-84.8,95.8-84.8,107,77.5,130.9,62.7c5.2-3.2,7.6-18.3,6.9-41.5-56.9-21.3-131.1-68.8-152.4-70C2082.2,1681,2058.4,1767,2021.4,1761.8Z" transform="translate(0.1 0)" style="fill:#ffba76" /><path d="M1314.4,1592s33.2-197.9,176.2-250.7c94.2-34.8,446.5-41.1,531.5,13.5s191.9,266.2,180,287-79.9-17.6-101.3-11.4-54.5,54.5-74.2,61.3-104.1-89.3-124.9-87.9-97.9,97-126,104.3-136.7-90.2-174.4-84.2-84.1,58.9-110.7,60.3-58.9-51-92.2-54.9S1304.7,1628.1,1314.4,1592Z" transform="translate(0.1 0)" style="fill:#ffd2a1" /><path d="M1810.8,1290.2c0,30.5-51.1,102.6-114.1,102.6s-114.1-72.1-114.1-102.6,51.1-64.6,114.1-64.6S1810.8,1259.8,1810.8,1290.2Z" transform="translate(0.1 0)" style="fill:#5d0102" /><path d="M1789.2,1298.8c-3.7,18.2-47.9,54.1-91.7,45.2s-70.4-59.3-66.7-77.5,43.3-31.4,87-22.5S1792.9,1280.6,1789.2,1298.8Z" transform="translate(0.1 0)" style="fill:#6d050a" /><path d="M1713.1,1372c-63,0-114.1-72.1-114.1-102.6a33.2,33.2,0,0,1,2.9-12.8c-12.2,10.4-19.3,22.3-19.3,33.6,0,30.5,51.1,102.6,114.1,102.6,41.6,0,78-31.5,97.9-61.6C1773.9,1353.4,1745.1,1372,1713.1,1372Z" transform="translate(0.1 0)" style="fill:#470104" /><path d="M1730.8,1448.7c0,11.9-9.3,68.3-20.8,68.3s-20.9-56.4-20.9-68.3,9.4-31.5,20.9-31.5S1730.8,1436.7,1730.8,1448.7Z" transform="translate(0.1 0)" style="fill:#e1a159" /><path d="M1539.5,1431.8c-4.4,11.1-34,60-44.6,55.7s1.5-60,6-71.1,20.3-25.8,31-21.5S1544,1420.7,1539.5,1431.8Z" transform="translate(0.1 0)" style="fill:#e1a159" /><path d="M1522.6,1635.7c-4.5,11.1-34,60-44.7,55.7s1.6-60,6-71.1,20.3-25.7,31-21.5S1527,1624.7,1522.6,1635.7Z" transform="translate(0.1 0)" style="fill:#e1a159" /><path d="M1380.6,1614.8c-4.4,11.1-34,59.9-44.7,55.7s1.6-60.1,6-71.2,20.4-25.7,31-21.5S1385,1603.7,1380.6,1614.8Z" transform="translate(0.1 0)" style="fill:#e1a159" /><path d="M1390.3,1446.8c-7.5,9.3-49.8,47.7-58.8,40.6s18.7-57.1,26.1-66.5,26.9-18.8,35.9-11.7S1397.7,1437.4,1390.3,1446.8Z" transform="translate(0.1 0)" style="fill:#e1a159" /><path d="M1688.6,1623.4c0,12-9.3,68.3-20.8,68.3s-20.8-56.3-20.8-68.3,9.3-31.4,20.8-31.4S1688.6,1611.5,1688.6,1623.4Z" transform="translate(0.1 0)" style="fill:#e1a159" /><path d="M1845.3,1628.9c3.2,11.5,9.2,68.3-1.9,71.4s-35-48.8-38.2-60.3.6-32.8,11.7-35.9S1842.2,1617.4,1845.3,1628.9Z" transform="translate(0.1 0)" style="fill:#e1a159" /><path d="M1876.4,1435.6c4.8,10.9,19.1,66.2,8.6,70.9s-41.8-43.1-46.7-54-4.2-32.6,6.3-37.2S1871.6,1424.7,1876.4,1435.6Z" transform="translate(0.1 0)" style="fill:#e1a159" /><path d="M2028.7,1548.2c4.9,11,19.2,66.3,8.6,70.9s-41.8-43.1-46.6-54-4.2-32.5,6.3-37.2S2023.9,1537.3,2028.7,1548.2Z" transform="translate(0.1 0)" style="fill:#e1a159" /><path d="M2048.3,1374.2c7.5,9.3,36,58.8,27.1,66.1s-51.8-30.5-59.3-39.7-12.7-30.3-3.8-37.5S2040.7,1365,2048.3,1374.2Z" transform="translate(0.1 0)" style="fill:#e1a159" /><path d="M2163.1,1596.6c7.5,9.3,36,58.8,27.1,66s-51.8-30.4-59.3-39.6-12.7-30.3-3.8-37.6S2155.5,1587.4,2163.1,1596.6Z" transform="translate(0.1 0)" style="fill:#e1a159" /><path d="M1357.3,1782.6s60.1,44.4,81.4,72.3-12.4,175.9-33,184.5-50.8-108.1-60.7-159.8S1336.3,1766.4,1357.3,1782.6Z" transform="translate(0.1 0)" style="fill:#fff" /><path d="M970.6,1479.2a12.1,12.1,0,0,1-5.2-23c7.5-3.5,184.7-85,351.9-26.6a12,12,0,1,1-7.9,22.7h0c-157.8-54.9-332,24.9-333.8,25.7A10.8,10.8,0,0,1,970.6,1479.2Z" transform="translate(0.1 0)" /><path d="M975.3,1656.9a11.9,11.9,0,0,1-12.1-11.9,12.3,12.3,0,0,1,3.6-8.7c6-5.9,149.5-145.3,329.7-109.1a12,12,0,1,1-4.7,23.6h0c-167.3-33.6-306.7,101.3-308.1,102.7A12,12,0,0,1,975.3,1656.9Z" transform="translate(0.1 0)" /><path d="M970.5,1801.4a12,12,0,0,1-8.3-20.7c6.7-6.5,166.3-159.5,293.4-168.8a12,12,0,1,1,1.7,24c-118.3,8.7-276.8,160.6-278.4,162.1A12,12,0,0,1,970.5,1801.4Z" transform="translate(0.1 0)" /><path d="M2461.3,1479.2a12.1,12.1,0,0,0,5.1-23c-7.4-3.5-184.7-85-351.9-26.6a11.9,11.9,0,0,0-7.3,15.3,12,12,0,0,0,15.3,7.4c157.7-54.9,331.9,24.9,333.7,25.7A11.3,11.3,0,0,0,2461.3,1479.2Z" transform="translate(0.1 0)" /><path d="M2456.6,1656.9a11.8,11.8,0,0,0,8.5-3.6,12,12,0,0,0-.1-17h0c-6-5.9-149.5-145.3-329.7-109.1a12,12,0,0,0,4.8,23.6c167.2-33.6,306.6,101.3,308,102.7A12.2,12.2,0,0,0,2456.6,1656.9Z" transform="translate(0.1 0)" /><path d="M2461.3,1801.4a12.1,12.1,0,0,0,12-12.2,12,12,0,0,0-3.6-8.5c-6.8-6.5-166.4-159.5-293.4-168.8a12.2,12.2,0,0,0-12.9,11.1,12,12,0,0,0,11,12.9h.1c118.3,8.7,276.8,160.6,278.4,162.1A12,12,0,0,0,2461.3,1801.4Z" transform="translate(0.1 0)" /><path d="M2671.6,1636c-87.6,0-153.7-38.1-153.7-88.7s66.1-88.7,153.7-88.7,153.6,38.2,153.6,88.7S2759.1,1636,2671.6,1636Zm0-129.2c-63.4,0-105.5,24.4-105.5,40.5s42.1,40.5,105.5,40.5,105.4-24.4,105.4-40.5-42.1-40.5-105.4-40.5Z" transform="translate(0.1 0)" style="fill:#efefef" /><path d="M2684.7,1621.2c-87.6,0-153.6-38.1-153.6-88.7a60.2,60.2,0,0,1,11.1-34.3c-15.4,13.9-24.3,30.7-24.3,49.1,0,50.6,66.1,88.7,153.7,88.7,66.2,0,120.1-21.8,142.4-54.3C2787.2,1605.8,2740.3,1621.2,2684.7,1621.2Z" transform="translate(0.1 0)" style="fill:#e2e2e2" /><path d="M2679.2,1471.6c-73.8-4-135.2,22.5-137.1,59.1s56.3,69.4,130,73.3,135.2-22.5,137.1-59.1S2753,1475.5,2679.2,1471.6Zm-7.6,116.2c-63.4,0-105.5-24.4-105.5-40.5s42.1-40.5,105.5-40.5,105.4,24.4,105.4,40.5S2734.9,1587.8,2671.6,1587.8Z" transform="translate(0.1 0)" style="fill:#fff" /><path d="M2791.9,1392.6c-103.7,0-181.9-45.2-181.9-105s78.2-105,181.9-105,181.8,45.1,181.8,105S2895.5,1392.6,2791.9,1392.6Zm0-152.9c-75.1,0-124.9,28.8-124.9,47.9s49.8,47.9,124.9,47.9,124.8-28.8,124.8-47.9S2866.9,1239.7,2791.9,1239.7Z" transform="translate(0.1 0)" style="fill:#efefef" /><path d="M2807.4,1375.1c-103.7,0-181.9-45.2-181.9-105,0-14.6,4.7-28.3,13.2-40.7-18.3,16.4-28.7,36.3-28.7,58.2,0,59.8,78.2,105,181.9,105,78.4,0,142.2-25.8,168.6-64.3C2928.7,1356.9,2873.2,1375.1,2807.4,1375.1Z" transform="translate(0.1 0)" style="fill:#e2e2e2" /><path d="M2800.9,1197.9c-87.4-4.7-160,26.7-162.3,70s66.6,82.2,153.9,86.8,160.1-26.6,162.4-70S2888.2,1202.5,2800.9,1197.9Zm-9,137.6c-75.1,0-124.9-28.8-124.9-47.9s49.8-47.9,124.9-47.9,124.8,28.8,124.8,47.9S2866.9,1335.5,2791.9,1335.5Z" transform="translate(0.1 0)" style="fill:#fff" /><path d="M2887,1095.2c-125.4,0-220-54.6-220-126.9s94.6-127,220-127,219.9,54.6,219.9,127S3012.4,1095.2,2887,1095.2Zm0-184.9c-90.8,0-151,34.9-151,58s60.2,57.9,151,57.9,150.9-34.9,150.9-57.9S2977.7,910.3,2887,910.3Z" transform="translate(0.1 0)" style="fill:#efefef" /><path d="M2905.8,1074.1c-125.4,0-220-54.6-220-127,0-17.6,5.7-34.2,16-49.2-22.2,19.9-34.8,43.9-34.8,70.4,0,72.3,94.6,126.9,220,126.9,94.8,0,172-31.2,204-77.7C3052.5,1052.1,2985.4,1074.1,2905.8,1074.1Z" transform="translate(0.1 0)" style="fill:#e2e2e2" /><path d="M2897.9,859.8c-105.6-5.6-193.5,32.3-196.3,84.7s80.6,99.4,186.2,105,193.5-32.3,196.3-84.7S3003.5,865.4,2897.9,859.8ZM2887,1026.2c-90.8,0-151-34.9-151-57.9s60.2-58,151-58,150.9,34.9,150.9,58S2977.7,1026.2,2887,1026.2Z" transform="translate(0.1 0)" style="fill:#fff" /><path d="M1975.3,2724.4c-32.6,30.6-92.9,64.3-125.6,80.7,60.3-9.2,57.2,40.8,10.3,70.4a332.9,332.9,0,0,1-118.9,49.9l-17-316.8,174.8-14.9v-46l-178.4-6.2-3.7-69.3a69.4,69.4,0,1,0-40.2,0l-3.7,69.3-178.4,6.2v46l174.8,14.9-17,316.8a332.4,332.4,0,0,1-118.8-49.9c-47-29.6-50.1-79.6,10.2-70.4-32.7-16.4-93-50.1-125.6-80.7-5.1,6.1,9.2,227.5,278.4,281.8h.4C1966.1,2951.9,1980.4,2730.5,1975.3,2724.4ZM1664,2405.8a32.7,32.7,0,1,1,32.7,32.7h0A32.9,32.9,0,0,1,1664,2405.8Z" transform="translate(0.1 0)" style="fill:#3f3f3f" /><path d="M1664,2902.1s15.3-299.2,16.7-304.4-60.6-4-126-9.1c-31.6-2.5-49.8-9.8-60.2-16.6v21.7l174.8,14.9-17,316.8Z" transform="translate(0.1 0)" style="fill:#333" /><path d="M1641.5,2416c-7.7-26.4,6.3-53.9,13.5-65.6a69.3,69.3,0,0,0,21.6,121.8l-3.7,69.3c8-.2,11.5-23.4,11.5-23.4l2-55.1S1649.7,2446.6,1641.5,2416Z" transform="translate(0.1 0)" style="fill:#333" /><path d="M1696.5,3006.2h.4c72.1-14.6,125.9-41.1,165.9-72.2-63.9,36.1-143,61.9-170.2,52.8-241-52.1-274.5-262.4-274.5-262.4C1413,2730.5,1427.3,2951.9,1696.5,3006.2Z" transform="translate(0.1 0)" style="fill:#333" /><path d="M1967,2741c-18.4,19.1-64.3,45.9-86.5,58.2,19.9,6.1,23.7,25.3,16.8,43.6-26,55.2-127.1,85-148.6,91.9s-19.1-21.4-19.1-21.4-13.8-294.9-13-307.1,16.1-10.7,16.1-10.7,123.3-4.6,144.7-7.7,15.3-7.7,15.3-19.9-13-13.8-13-13.8-134-.8-155.5-2.3-13-34.5-13.8-56.7-1.5-33.7,8.5-34.4c31.4-11.5,39.8-44.4,34.4-72.8-9.2-34.4-50.5-43.6-74.3-38.3s-35.2,42.1-32.1,60.5,24.5,40.6,38.3,44.4,7.6,47.5,6.1,68.2-15.3,27.6-15.3,27.6-156.3,4.6-163.9,4.6-17.6,5.3-8.2,14.3c24.8,9,146.8,17.8,169.8,19.4s14.5,14.5,14.5,14.5-12.2,252.8-15.3,301c-7.6,43.7-31.4,42.1-117.2-5.4s-72.7-85-55.9-92.6,10-8.5,6.9-11.5c-36-12.3-76.6-49.8-76.6-49.8,23,72.8,68.2,131.7,109.6,165.4s94.9,54.4,134.8,63.6,56.6,13.8,149.3-31.4,133.3-150.9,137.8-167.7S1973.1,2734.9,1967,2741Zm-303-335.2a32.7,32.7,0,1,1,32.7,32.7h0a32.9,32.9,0,0,1-32.7-32.7Z" transform="translate(0.1 0)" style="fill:#4f4f4f" /><path d="M1749.5,2416.6s10.3-47.1-30.6-59.3C1723.8,2363.4,1744.5,2376,1749.5,2416.6Z" transform="translate(0.1 0)" style="fill:#595959" /><path d="M1785.9,2558.7h85.4s16.8-1.5,17.2,10.3C1889.3,2573.6,1785.9,2558.7,1785.9,2558.7Z" transform="translate(0.1 0)" style="fill:#595959" /><path d="M1465.8,2778.1s16.4,13,34.8,19.2c5,2.3-1.9,8-10.3,3S1467.3,2780.8,1465.8,2778.1Z" transform="translate(0.1 0)" style="fill:#595959" /><path d="M1959.6,2758.1s-14.8,58.7-59.7,117.9c16.8-29.6,34.7-54.1,46.9-107.2C1947.9,2761.1,1961.1,2752.5,1959.6,2758.1Z" transform="translate(0.1 0)" style="fill:#595959" /><path d="M1846.6,3403.1c0,12-9.3,68.3-20.8,68.3s-20.9-56.3-20.9-68.3,9.4-31.4,20.9-31.4S1846.6,3391.2,1846.6,3403.1Z" transform="translate(0.1 0)" style="fill:#e1a159" /><path d="M1619.5,3403.1c0,12-9.3,68.3-20.8,68.3s-20.8-56.3-20.8-68.3,9.3-31.4,20.8-31.4S1619.5,3391.2,1619.5,3403.1Z" transform="translate(0.1 0)" style="fill:#e1a159" /><path d="M1738.3,3597.1c0,11.9-9.3,68.3-20.8,68.3s-20.8-56.4-20.8-68.3,9.3-31.5,20.8-31.5S1738.3,3585.1,1738.3,3597.1Z" transform="translate(0.1 0)" style="fill:#e1a159" /><path d="M1912.7,3614.8c1.7,11.8.4,68.9-11,70.5s-28.5-52.9-30.2-64.7,4.9-32.4,16.2-34S1911.1,3603,1912.7,3614.8Z" transform="translate(0.1 0)" style="fill:#e1a159" /><path d="M2052.5,3507.6c1.6,11.8.3,68.9-11.1,70.5s-28.5-52.9-30.2-64.7,4.9-32.4,16.2-34.1S2050.8,3495.7,2052.5,3507.6Z" transform="translate(0.1 0)" style="fill:#e1a159" /><path d="M2129.5,3376.4c1.7,11.8.3,68.9-11.1,70.5s-28.4-52.9-30.1-64.7,4.8-32.5,16.2-34.1S2127.8,3364.5,2129.5,3376.4Z" transform="translate(0.1 0)" style="fill:#e1a159" /><path d="M2271.7,3581.2c1.6,11.8.3,68.9-11.1,70.5s-28.5-52.8-30.1-64.7,4.8-32.4,16.2-34S2270,3569.4,2271.7,3581.2Z" transform="translate(0.1 0)" style="fill:#e1a159" /><path d="M2308.5,3359.2c1.7,11.8.3,68.9-11.1,70.5s-28.4-52.9-30.1-64.7,4.8-32.4,16.2-34S2306.8,3347.4,2308.5,3359.2Z" transform="translate(0.1 0)" style="fill:#e1a159" /><path d="M2094.5,3680.1c1.7,11.8.3,68.9-11,70.5s-28.5-52.8-30.2-64.7,4.8-32.4,16.2-34S2092.8,3668.3,2094.5,3680.1Z" transform="translate(0.1 0)" style="fill:#e1a159" /><path d="M2043.6,3870.7c1.7,11.8.3,68.9-11,70.5s-28.5-52.8-30.2-64.7,4.8-32.4,16.2-34S2041.9,3858.9,2043.6,3870.7Z" transform="translate(0.1 0)" style="fill:#e1a159" /><path d="M1849.8,3809c1.6,11.8.3,68.9-11.1,70.5s-28.5-52.9-30.2-64.7,4.9-32.4,16.2-34S1848.1,3797.2,1849.8,3809Z" transform="translate(0.1 0)" style="fill:#e1a159" /><path d="M1779.8,3929.2c1.7,11.8.3,68.9-11.1,70.5s-28.4-52.9-30.1-64.7,4.8-32.4,16.2-34S1778.1,3917.4,1779.8,3929.2Z" transform="translate(0.1 0)" style="fill:#e1a159" /><path d="M1624.3,3770.6c-.6,11.9-12.8,67.7-24.3,67.1s-17.9-57.4-17.3-69.3,11-30.9,22.5-30.3S1624.9,3758.7,1624.3,3770.6Z" transform="translate(0.1 0)" style="fill:#e1a159" /><path d="M1504.8,3524.8c-.6,11.9-12.9,67.7-24.3,67.1s-17.9-57.4-17.3-69.3,11-30.9,22.5-30.3S1505.4,3512.8,1504.8,3524.8Z" transform="translate(0.1 0)" style="fill:#e1a159" /><path d="M1416.4,3846.4c-.6,11.9-12.9,67.7-24.4,67.1s-17.8-57.3-17.2-69.3,11-30.9,22.4-30.3S1417,3834.5,1416.4,3846.4Z" transform="translate(0.1 0)" style="fill:#e1a159" /><path d="M1343.3,3648.1c-.6,11.9-12.8,67.7-24.3,67.1s-17.9-57.4-17.2-69.3,10.9-30.9,22.4-30.3S1343.9,3636.1,1343.3,3648.1Z" transform="translate(0.1 0)" style="fill:#e1a159" /><path d="M1280.5,3402.9c-.8,12-13.6,67.6-25.1,66.9s-17.2-57.6-16.5-69.5,11.3-30.8,22.8-30.1S1281.2,3391,1280.5,3402.9Z" transform="translate(0.1 0)" style="fill:#e1a159" /><path d="M1151.4,3624.6c-.7,11.9-13.6,67.6-25.1,66.8s-17.2-57.5-16.4-69.4,11.2-30.8,22.7-30.1S1152.2,3612.7,1151.4,3624.6Z" transform="translate(0.1 0)" style="fill:#e1a159" /><path d="M1053.3,3387.8c-.7,12-13.6,67.6-25.1,66.9s-17.2-57.5-16.4-69.5,11.2-30.8,22.7-30S1054.1,3375.9,1053.3,3387.8Z" transform="translate(0.1 0)" style="fill:#e1a159" /><path d="M2250.6,3753.8c1.7,11.8.4,68.9-11,70.5s-28.5-52.9-30.2-64.7,4.9-32.5,16.2-34.1S2249,3741.9,2250.6,3753.8Z" transform="translate(0.1 0)" style="fill:#e1a159" /><path d="M2387.1,3585.9c1.7,11.8.3,68.9-11.1,70.5s-28.4-52.9-30.1-64.7,4.8-32.4,16.2-34S2385.4,3574.1,2387.1,3585.9Z" transform="translate(0.1 0)" style="fill:#e1a159" /><path d="M2463.5,3354.6c5.7,10.5,24.5,64.4,14.4,69.9s-45.2-39.5-51-50-6.8-32,3.3-37.5S2457.8,3344.1,2463.5,3354.6Z" transform="translate(0.1 0)" style="fill:#e1a159" /><path d="M1759.4,3226.1c-563.4,0-1040.3-126.7-1133.8-153.1a17,17,0,0,1-11.6-21c0-.2.1-.3.1-.5l8.8-28.6a17,17,0,0,1,20.8-11.6c91,25.8,560.5,150.5,1115.7,150.5,594.3,0,953-120,1028.8-148.2a17,17,0,0,1,21.5,9.6l11.7,27.7a16.9,16.9,0,0,1-8.7,22.3l-.8.3C2732.3,3103.7,2372,3226.1,1759.4,3226.1Z" transform="translate(0.1 0)" style="fill:#e5f9f8" /><path d="M3124.6,2023.4s186.1,95.7,323.4,136.4,272.1,65.8,281.1,77.9,18.6,157.9,5.1,179.1-374.8-160.4-537.1-279.2S3063.8,1993.5,3124.6,2023.4Z" transform="translate(0.1 0)" style="fill:#2e4241" /></symbol></svg>